/* XPM */
static char *ce69882259154439e0111d734177e05fXhPgphF0p6mFt5E8[] = {
/* columns rows colors chars-per-pixel */
"64 64 123 2 ",
"   c None",
".  c #00424A",
"X  c #407E80",
"o  c #0C1313",
"O  c #050F10",
"+  c #082D2F",
"@  c #7FBDBD",
"#  c #23B9BF",
"$  c #061112",
"%  c #083536",
"&  c #738485",
"*  c #032A2C",
"=  c #082E31",
"-  c #B5C1C1",
";  c #85BDBE",
":  c #669C9E",
">  c #7DB7B9",
",  c #042629",
"<  c #0CC5CF",
"1  c #0A3535",
"2  c #B2BCBC",
"3  c #030808",
"4  c #ACB7B6",
"5  c #477B7D",
"6  c #609598",
"7  c #316C6E",
"8  c #687A7A",
"9  c #04282B",
"0  c #026E75",
"q  c #111D1E",
"w  c #1E4E51",
"e  c #5A6D6D",
"r  c #C4D0CE",
"t  c #BBC6C6",
"y  c #B8C2C1",
"u  c #C9F3F3",
"i  c #387374",
"p  c #84BBBC",
"a  c #A5AEAD",
"s  c #045C62",
"d  c #AFC3C3",
"f  c #A1D7D8",
"g  c #6F7777",
"h  c #0B1011",
"j  c #0D1414",
"k  c #61696A",
"l  c #0B1111",
"z  c #3B4444",
"x  c #848D8D",
"c  c #525C5C",
"v  c #E4E5E4",
"b  c #E3EBEB",
"n  c #455756",
"m  c #869393",
"M  c #F3FCFB",
"N  c #ACB4B4",
"B  c #283132",
"V  c #A0B4B3",
"C  c None",
"Z  c #2B3B3D",
"A  c #75BCBF",
"S  c #80C7C9",
"D  c #777F81",
"F  c #E8F1F1",
"G  c #0C0C0C",
"H  c white",
"J  c gray3",
"K  c #0B0B0B",
"L  c #010101",
"P  c gray4",
"I  c #1E1E1E",
"U  c #191919",
"Y  c gray2",
"T  c #B2B2B2",
"R  c gray14",
"E  c #DFDFDF",
"W  c #313131",
"Q  c gray98",
"!  c #2D2D2D",
"~  c #FFFEFE",
"^  c gray94",
"/  c #E6E6E6",
"(  c #E9E9E9",
")  c #282828",
"_  c #151515",
"`  c gray36",
"'  c #F6F6F6",
"]  c #0E0F0F",
"[  c #131313",
"{  c #F8F8F8",
"}  c #EEEEEE",
"|  c #979898",
" . c #F4F4F4",
".. c #FBFBFB",
"X. c #6A6A6A",
"o. c #9F9F9F",
"O. c gray71",
"+. c #E2E2E2",
"@. c LightGray",
"#. c gray26",
"$. c #7C7C7C",
"%. c gray95",
"&. c #656565",
"*. c gray84",
"=. c gray54",
"-. c #AFAFAF",
";. c #D9DADA",
":. c gray22",
">. c #ECECEC",
",. c #DDDDDD",
"<. c #A5A5A5",
"1. c gray56",
"2. c #BCBDBD",
"3. c gray66",
"4. c gray43",
"5. c #FEFDFD",
"6. c #747474",
"7. c #A2A2A2",
"8. c gray67",
"9. c gray52",
"0. c gray77",
"q. c #CCCDCD",
"w. c gray31",
/* pixels */
"                                                s 7 @ @ @ @ @ @ @ @ @ @ @ > #                                                   ",
"                                          . X X : 8 4 - - - - - - - - - - d p X 7 X .                                           ",
"                                      . X p & x b ( %. . . . . . .' ' ' ' ^ 2 D g 8 : X .                                       ",
"                                  . * w e r C ( 5.H H H H H H H H H H H H ~  .( ( +.2 & p X * 0                                 ",
"                            . * = 9 q z &.$.=.+.^ %.' { { { H H H H H H H H H ..Q { >.+.r c q 9 * .                             ",
"                            , O 3 3 G G [ [ I ` X.=.3.8.8.O.+.>.>.>.>.>.>.>./ 2.-.-.-.7.w._ J 3 O ,                             ",
"                      . * 9 O Y P K G P J P K G ] U I I I I ) ! ! ! W #.#.#.#.R I I I I K L Y P K O 9 * .                       ",
"                      , O 3 ] K G G G G G G G P J L G U U U U U U _ K K G K Y J J J J J P K G G G G 3 O ,                       ",
"                  < , O G K G G G G G G G G G G L U $.@.,.,.,.,.,.q.6.&.&.` U Y K G G G G G G G G G K G O , <                   ",
"                  , $ G G G G G G G G G G G G P G &.+.H H H H H H ~ >.( ( +.| R G G G G G G G G G G G G G O ,                   ",
"              . , O K G G G G G G G G G G G G J ) *.H H H H H H H H H H H H } | _ J G G G G G G G G G G G K O , .               ",
"              * O G Y G G G G G G G G G G G J ] 4.} H H H H H H H H H H H H H ,.W Y G G G G G G G G G G K Y G q *               ",
"              : z K L K G G G G G G G G G K Y ! *.~ H H H H H H H H H H H H H ' o._ J G G G G G G G G G K L [ c :               ",
"          0 : V o.R L K G G G G G G G G G J _ 9.%.H H H H H H H H H H H H H H H E W Y P G G G G G G G G K L R q.d : <           ",
"        . w 8 2.v 1.[ J G G G G G G K K J L U 3.' H H H H H H H H H H H H H H H 5.0.I L P G G G G G G G P L R / / & w .         ",
"        = B 2. .H ;.I L G G G K P K G [ [ ] U o.%.H H H H H H H H H H H H H H H H *.) L L L L L L L P K P L ) / ..O.B =         ",
"      0 w k v H H +.) L J P G U U R ` | o.=.R W 2...H H H H H H H H H H H H H H v X._ _ _ ] G G G G L L J Y #.( H v g 5 #       ",
"      = Z 2.{ H H } $.] G I :.0.;.;./ %. .( 1.U ` E H H H H H H H H H H H H H ( 6.! &.0.q.1.=.=.9.X.U K L P X.^ H 5.C & X       ",
"      7 g / H H H } 4.I X.@.v ~ H H H H H H ;.) [ 6.>.H H H H H H H H H H H ' 7.W =.v H H  .%.%.( o.$.4.R [ 4.^ H H  .4 >       ",
"    . : y ' H H H *.:.X.,.H H H H H H H H H %.1.I R <.} H H H H H H H H H H @.W ) ;.H H H H H H 5.} >.>.q.` :.*.~ H ' r p <     ",
"    7 e v H H H ^ $.W @.H H H H H H H H H H ~ ( =.I ) =./ ~ H H H H H Q %.*.#.[ 4.>.H H H H H H H H H H H @.! #.( H ~ >.d A     ",
"    > 4  .H H H ,.:.` >.H H H H H H H H H H H H ( $.G U 4.+.{ { { { %.2.X.! J :.-.' H H H H H H H H H H H %.$.) *.H H  .2 >     ",
"  . : y ' H H %.=.! O.{ H H H H H H H H H H H H H @.) L _ ` o.8.8.8.o.` [ L [ X.v ~ H H H H H H H H H H H  .| ! 6.} H  .y : .   ",
"  X 8 O.' H H v W :.v H H H H H H H H H H H H H H ^ $.] L P _ U U U _ K L J ` ,.~ H H H H H H H H H H H H ~ v $.:.@.H ~ v & X   ",
"  @ a 0.{ ~ ' @.:.0.5.H H H H H H H H H H H H H H ( X.G L L L L L L L L L [ | ' H H H H H H H H H H H H H H ' 7.U #.;.H 5.b u   ",
"  @ y ( Q ( $.W ) E H H H H H H H H H H H H H H Q T R L P K K K K K K P L G 6.^ H H H H H H H H H H H H H H  .7._ L #.@. .M u   ",
". : 2 0.2.7.R L U -.Q H H H H H H H H H H H H H } X.P L G G G G G G G G J G &.^ H H H H H H H H H H H H H H / X.G L Y ! 9.b f 0 ",
"i e o.| W I J J G X.>.H H H H H H H H H H H H H E ! L P G G G G G G G G G P W *.~ H H H H H H H H H H H H %.o.I K K P L ) 7.V > ",
"i z R U L L P G L R -.{ H H H H H H H H H H H  .| _ J G G G G G G G G G G K J #.,.H H H H H H H H H H H { -.! K G G G P J R c i ",
"1 o L L P G G G P Y :.,.H H H H H H H H H H H ;.W Y G G G G G G G G G G G G J ] 6./ H H H H H Q Q Q Q Q *.:.Y K G G G G K K o % ",
"1 3 P K G G G G G J ] 6.( { { { { { { { { { +.6.] J G G G G G G G G G G G G K Y U $.,.( ( ( E O.-.-.-.7.:.Y J G G G G G G G o 1 ",
"1 o G G G G G G G G J I 1.8.T T T T T T T 8.4.U Y K G G G G G G G G G G G G G J L ] R ) ) ) R U U U U U Y P G G G G G G G G o 1 ",
"1 o G G G G G G G G P Y U I I I I I I I I I ] L J G G G G G G G G G G G G G G K L ] [ [ [ [ _ _ _ [ J L P G G G G G G G G G o 1 ",
"1 o G G G G G G G G G J L [ U U U U U U U U _ L L G G G G G G G G G G G G G G J [ 9.q.*.*.*.*.*.*.q.4._ K G G G G G G G G G o 1 ",
"1 o G G G G G G G G K Y R o.*.,.,.,.,.,.,.,.0.I L K G G G G G G G G G G G G K L I 3.Q H H H H H H H +.X.] L G G G G G G G G o % ",
"1 o G G G G G G G G K R o.} H H H H H H H H >.&.[ K G G G G G G G G G G G G J ] X.+.H H H H H H H H ~ @.) L P G G G G G G G o % ",
"% O ] G G G G G G P U | } H H H H H H H H H 5.;.&.] K G G G G G G G G G G P L ) @.~ H H H H H H H H H ^ $.] L G G G G G G ] q = ",
"s + l G G G G G G J ) ,.H H H H H H H H H H H H @.R P G G G G G G G G G G L G 4.} H H H H H H H H H H ~ *.R L G G G G G K l + s ",
"  = 3 L K G G G K ] &.>.H H H H H H H H H H H H } &.G K G G G G G G G G P L ) @.5.H H H H H H H H H H H } 4.] K G G G P G o =   ",
"  % o G Y P G G J I 3.' H H H H H H H H H H H H 5.@.R P G G G G G G G K L J ` } H H H H H H H H H H H H ~ *.) P G K G I ` m >   ",
"  X k &.I ] K J L I 8.' H H H H H H H H H H H H H ^ $.[ L L L L L L L L L J ` } H H H H H H H H H H H H H } &.G P [ W 0.,.2 >   ",
"  7 e o.| 1.w.U J w.+.~ H H H H H H H H H H H H H ^ | _ P U I I I I I [ L L W ,.H H H H H H H H H H H H H ^ 6.G I 1.*.5.' 4 >   ",
"  s 6 N O.T <.=.I ` >.H H H H H H H H H H H H H ..q.&.U X.@.,.,.,.,.*.1.R J [ 9.>.H H H H H H H H H H H H ^ 4.I | >.H H / & X   ",
"    > a T T O.3.` :.2...H H H H H H H H H H H H %.=.I ! *.H H H H H H ^ q.X.I R |  .H H H H H H H H H H H } &.) ;.H H ' y 6 s   ",
"    X 8 3.T T T | W $.>.H H H H H H H H H H H H +.W I | ' H H H H H H H H ( | U W +.H H H H H H H H H H H ,.! W / H H  .d A     ",
"    s 6 a T T T -.=.:.8. .H H H H H H H H H H %.3.! $.( H H H H H H H H H H ( $.! -.' H H H H H H H H H %.| W 7.' H ~ M f #     ",
"      X & <.T T T o.! W <.>.%.~ H H H H H H ' 3.W ` E ~ H H H H H H H H H H ~ v 1.w.T } H H H H H ..Q  .T W w.v H ~ %.t S       ",
"      # 5 g 3.T T -.1.R R X.9.E ' H H H H H ;.W U 7.{ H H H H H H H H H H H H H >.o.#.9.+.} >.>./ 2.O.3.! P ` } H ' r f #       ",
"        7 e <.T T T T 9.[ G [ :.| v } >.} ,.` [ ` +.H H H H H H H H H H H H H H H >.=.R ! W ! ! ! R R I Y J W ( H  .4 >         ",
"        . 5 x 8.T T 8.X.G L L L I ! W W W ! J _ |  .H H H H H H H H H H H H H H H >.&.J L L L L L J J J P J ) / H E & 7         ",
"          X e <.T O.-.` G J G K P J J J L L L R *.~ H H H H H H H H H H H H H H H ,.R L P K K K K G G G K L ) / ( & 5 s         ",
"          s 5 & <.2.;.` G K G G G G G G K K J R @.~ H H H H H H H H H H H H H ~ ^ <.[ L G G G G G G G G K L ) ;.t 6 s           ",
"            0 5 & O.*.) L G G G G G G G G G G ] #.E H H H H H H H H H H H H H ' T ! Y P G G G G G G G G G J R | p               ",
"              # 6 m <.U L G G G G G G G G G G P [ 1.^ H H H H H H H H H H H H } | _ J G G G G G G G G G G ] j q =               ",
"                0 5 n ] L G G G G G G G G G G G G ! 3.>.{ { { { H H H H H H ( | ! G G G G G G G G G G G G $ + % s               ",
"                  # 9 $ P G G G G G G G G G G G G J ) =.-.O.T 2./ } } } } ,.X.I G G G G G G G G G G G G $ 9                     ",
"                    # + $ G G G G G G G G G G G G P Y U I I I R ! W W W W ! ] J G G G G G G G G G K G $ + 0                     ",
"                        9 $ h ] G G G G G G G G K P J L Y Y Y Y Y Y Y Y Y Y Y J J J P P P P G G G h $ + <                       ",
"                        s % + $ h ] G G K K K P K [ [ U #.#.#.#.` ` ` ` ` ` w.#.R U _ _ _ ] K K $ + % s                         ",
"                            . % + $ l j ] U U I w.1.| | 7.<.<.T +.( ( / / / v +.;.@.8.o.=.w.j $ + 0                             ",
"                                s % 1 + n x | o.<.T O.O.O.O.2.>.H H H H H H H Q Q { F 2 k q + = .                               ",
"                                    < # X 6 8 a N -.T O.O.O.O.E { { { { { { %.r y d f ; i % .                                   ",
"                                          s i ; 6 8 a 4 4 4 4 2 t t t t t t d f ; > #                                           ",
"                                              < s i ; ; ; ; ; ; ; ; ; ; ; ; @ #                                                 "
};
