/* XPM */
static char *_02ed0adeb6d4ec4d0c7736e447ad159ynmZPNmXOlmY2qxe[] = {
/* columns rows colors chars-per-pixel */
"64 64 240 2 ",
"   c #030201",
".  c #0B0200",
"X  c #000A00",
"o  c #0E0B02",
"O  c #000408",
"+  c #140300",
"@  c #1B0200",
"#  c #130A00",
"$  c #1C0C00",
"%  c #130F0E",
"&  c #071801",
"*  c #1C1300",
"=  c #181704",
"-  c #230400",
";  c #290300",
":  c #260E00",
">  c #340900",
",  c #231300",
"<  c #241A00",
"1  c #2B1B00",
"2  c #2B1000",
"3  c #321C00",
"4  c #3A1A01",
"5  c #311400",
"6  c #221A18",
"7  c #0C2401",
"8  c #192C03",
"9  c #0F3E0B",
"0  c #143D0B",
"q  c #123F06",
"w  c #1A3A15",
"e  c #2B2100",
"r  c #282502",
"t  c #3C2400",
"y  c #382A01",
"u  c #393300",
"i  c #362E28",
"p  c #2E2E28",
"a  c #411C00",
"s  c #471700",
"d  c #442B01",
"f  c #4A2601",
"g  c #582600",
"h  c #4A3300",
"j  c #453704",
"k  c #573A03",
"l  c #513618",
"z  c #642B00",
"x  c #673A00",
"c  c #603F1C",
"v  c #5A3B26",
"b  c #155D00",
"n  c #1B5B00",
"m  c #104100",
"M  c #275A00",
"N  c #2E5A09",
"B  c #1A6101",
"V  c #18630A",
"C  c #286504",
"Z  c #396701",
"A  c #377A00",
"S  c #2D7300",
"D  c #574116",
"F  c #554C0A",
"G  c #684600",
"H  c #486907",
"J  c #4C7503",
"K  c #577513",
"L  c #464E3F",
"P  c #4A4C3F",
"I  c #43503F",
"U  c #6C6735",
"Y  c #6C5231",
"T  c #454E45",
"R  c #474A46",
"E  c #5D5D4C",
"W  c #5B5C47",
"Q  c #425043",
"!  c #6E5E5E",
"~  c #6F6A59",
"^  c #6C6869",
"/  c #6C7166",
"(  c #777570",
")  c #927719",
"_  c #A76A04",
"`  c #A97D05",
"'  c #AE7015",
"]  c #877128",
"[  c #B9792D",
"{  c #B97932",
"}  c #965B0D",
"|  c #C97B17",
" . c #D57A17",
".. c #CF7D2C",
"X. c #3C8400",
"o. c #488A01",
"O. c #548E0B",
"+. c #94811B",
"@. c #A78401",
"#. c #B49107",
"$. c #A9BB02",
"%. c #B3B40D",
"&. c #87842C",
"*. c #B2912C",
"=. c #BDA828",
"-. c #CB8319",
";. c #D88617",
":. c #CA9918",
">. c #D59619",
",. c #D28408",
"<. c #EC8300",
"1. c #E98A06",
"2. c #F28502",
"3. c #F28A03",
"4. c #F78D0D",
"5. c #E49300",
"6. c #EB9301",
"7. c #EC9A00",
"8. c #E79807",
"9. c #F29504",
"0. c #E48817",
"q. c #EB9119",
"w. c #D4AD0C",
"e. c #CAA11E",
"r. c #CCB71A",
"t. c #D7B81B",
"y. c #DBBD0F",
"u. c #F1AD0D",
"i. c #D78928",
"p. c #CA8B39",
"a. c #D48B38",
"s. c #D79338",
"d. c #CE8E2C",
"f. c #E38F23",
"g. c #E79427",
"h. c #E89735",
"j. c #EB9029",
"k. c #C6A624",
"l. c #C6B736",
"z. c #D1B73C",
"x. c #CBAD32",
"c. c #E2BD27",
"v. c #A8C008",
"b. c #BBCA33",
"n. c #DEC71C",
"m. c #FACD08",
"M. c #FDD402",
"N. c #FDDA02",
"B. c #FED30B",
"V. c #FDDB09",
"C. c #F5D70A",
"Z. c #E1C71A",
"A. c #FFCA14",
"S. c #FDD413",
"D. c #FDDA14",
"F. c #F7D919",
"G. c #E9D10C",
"H. c #FFE204",
"J. c #DDC526",
"K. c #DCC636",
"L. c #DCD52C",
"P. c #E8C82A",
"I. c #F3CA25",
"U. c #EDD727",
"Y. c #F6D72A",
"T. c #E6CB32",
"R. c #E7D637",
"E. c #F4DB34",
"W. c #F7D735",
"Q. c #F8CA36",
"!. c #D8E62E",
"~. c #DAEC34",
"^. c #FBE12D",
"/. c #F9E338",
"(. c #E2EA39",
"). c #87867D",
"_. c #CC8843",
"`. c #D89A4A",
"'. c #D09449",
"]. c #CDB445",
"[. c #DBC445",
"{. c #D8D34F",
"}. c #E6CC45",
"|. c #F3DC42",
" X c #FADB46",
".X c #E8D355",
"XX c #EED154",
"oX c #FAE248",
"OX c #ECD263",
"+X c #F0D562",
"@X c #EDED67",
"#X c #878683",
"$X c #99958B",
"%X c #999A9C",
"&X c #8F9082",
"*X c #A8998B",
"=X c #A49C96",
"-X c #9FA090",
";X c #B4AA9B",
":X c #A2A799",
">X c #9FA8AD",
",X c #B4B3AD",
"<X c #BFB2AA",
"1X c #B6B6B5",
"2X c #ACAEA8",
"3X c #C2BDB9",
"4X c #C4B9AC",
"5X c #FFFF9E",
"6X c #C6C7B9",
"7X c #C6CBAF",
"8X c #FFFDA3",
"9X c #C9CAC5",
"0X c #D4CCC6",
"qX c #CDD1C7",
"wX c #D4D4CB",
"eX c #D2CFD4",
"rX c #D5DAD6",
"tX c #E0DCDD",
"yX c #DEE4DC",
"uX c #FFFFCB",
"iX c #FFFED3",
"pX c #E2E0C9",
"aX c None",
"sX c None",
"dX c None",
"fX c None",
"gX c None",
"hX c None",
"jX c None",
"kX c None",
"lX c None",
"zX c None",
"xX c None",
"cX c None",
"vX c None",
"bX c None",
"nX c #None",
"mX c None",
"MX c None",
"NX c None",
/* pixels */
"vXvXvXvXvXvXvXvXvXvXvXvXvXvXvXvXvXzXvXvXxXxXvXgXkXlXxXxXzXzXvXvXzXzXzXzXgXgXzXzXzXzXvXgXgXzXvXvXvXvXvXvXvXvXvXvXvXvXvXvXvXvXvXvX",
"vXvXvXvXvXvXvXvXvXvXvXvXvXvXvXvXvXvXvXvXxXxXvXgXlXvXxXxXzXzXjXvXzXzXvXvXzXzXzXgXzXgXvXvXzXzXxXvXvXvXvXvXvXvXvXvXvXvXvXvXvXvXvXvX",
"vXvXvXvXvXvXvXvXvXvXvXvXvXvXvXvXvXvXvXxXxXvXlXlXlXvXxXdXzXzXvXvXvXvXlXvXhXvXvXfXgXzXvXvXzXzXvXvXvXvXvXvXvXvXvXvXvXvXvXvXvXvXvXvX",
"vXvXvXvXvXvXvXvXvXvXvXvXvXvXvXvXvXvXvXvXvXvXlXlXvXxXzXgXMXzXzXzXzXlXlXlXvXvXlXzXzXvXvXlXfXzXvXvXvXvXvXvXvXvXvXvXvXvXvXvXvXvXvXvX",
"vXvXvXvXvXvXvXvXvXvXvXvXvXvXvXvXvXvXgXgXzXzXvXvXvXgXgXgXgXzXvXvXgXgXvXlXxXxXvXxXdXzXlXlXlXlXvXvXvXvXvXvXvXvXvXvXvXvXvXvXvXvXvXvX",
"vXvXvXvXvXvXvXvXvXvXvXvXvXvXvXvXvXzXgXgXzXvXvXvXkXlXzXyXW W E E E W W E tXxXxXjXxXvXlXlXlXvXvXvXvXvXvXvXvXvXvXvXvXvXvXvXvXvXvXvX",
"vXvXvXvXvXvXvXvXvXvXvXvXvXvXvXvXvXzXzXzXvXvXxXjXxXvXvXrX    # . . + . . wXgXdXjXdXvXkXjXvXvXvXvXvXvXvXvXvXvXvXvXvXvXvXvXvXvXvXvX",
"vXvXvXvXvXvXvXvXvXvXvXvXvXvXvXvXlXvXzXvXvXvXjXNX^ ^ ^ ~ &.&.) +.) ) +.] U ~ ! ! wXkXvXvXvXxXvXvXvXvXvXvXvXvXvXvXvXvXvXvXvXvXvXvX",
"vXvXvXvXvXvXvXvXvXvXvXvXvXvXvXvXvXvXvXzXzXkXlXrX  . . t oX^.^.E.E./.^.|., . .   :XgXlXxXxXxXzXzXvXvXvXvXvXvXvXvXvXvXvXvXvXvXvXvX",
"vXvXvXvXvXvXvXvXvXvXvXvXvXvXvXvXxXvXzXzXzXgXlXyX  e *.#.F.C.Y.|.|.E.C.F.` ] r   2XgXzXvXvXvXzXdXvXvXvXvXvXvXvXvXvXvXvXvXvXvXvXvX",
"vXvXvXvXvXvXvXvXvXvXvXvXvXvXvXvXvXvXzXdXzXwXp 6 . t  XF.C.^.5XuXiX8XE.B.u.s.d . 6 p 1XlXlXlXfXvXvXvXvXvXvXvXvXvXvXvXvXvXvXvXvXvX",
"vXvXvXvXvXvXvXvXvXvXvXvXvXvXvXvXlXvXzXzXzX9X. + @ k F.N.N.Y.5XiXgXiXR.S.7.0.z - +   %XgXlXlXvXvXvXvXvXvXvXvXvXvXvXvXvXvXvXvXvXvX",
"vXvXvXvXvXvXvXvXvXvXvXvXvXvXvXvXlXlXvXzXkXqX. y }.G.V.N.B.F.W.OXiXuX|.A.7.3.0.a.d . 2XvXgXkXlXgXvXvXvXvXvXvXvXvXvXvXvXvXvXvXvXvX",
"vXvXvXvXvXvXvXvXvXvXvXvXvXvXvXvXlXlXvXzXzX6X@ x W.M.N.N.V.B.B.W.8X8X/.B.7.1.3.j.x @ *XzXMXfXvXvXvXvXvXvXvXvXvXvXvXvXvXvXvXvXvXvX",
"vXvXvXvXvXvXvXvXvXvXvXvXvXvXvXvXvXxXzX$X+ c p.;.5.7.D.V.H.N.M.S.Y.Y.m.M.B.A.9.1.;.s.D # ( gXvXxXvXvXvXvXvXvXvXvXvXvXvXvXvXvXvXvX",
"vXvXvXvXvXvXvXvXvXvXvXvXvXvXvXvXvXzXvX#X. f _.;.1.8.P.Z.C.N.N.M.V.M.H.M.m.A.9.1.0.s.d . ~ zXjXxXvXvXvXvXvXvXvXvXvXvXvXvXvXvXvXvX",
"vXvXvXvXvXvXvXvXvXvXvXvXvXvXvXvXvXgXgX#X. + @ g g.,.; h E.V.N.M.B.V.N.M.7.9.<.j.z @ $   / gXjXxXvXvXvXvXvXvXvXvXvXvXvXvXvXvXvXvX",
"vXvXvXvXvXvXvXvXvXvXvXvXvXvXvXvXzXvXvX#X    . 3 p.' @ 3 ].P.C.V.m.B.B.m.6.<.2.j.g . .   ^ kXvXvXvXvXvXvXvXvXvXvXvXvXvXvXvXvXvXvX",
"vXvXvXvXvXvXvXvXvXvXvXvXvXvXvXvXvXzXvX#X    . + $ @ . . $ d U.V.V.S.8.6.3.3.2.j.g + .   ^ xXxXxXvXvXvXvXvXvXvXvXvXvXvXvXvXvXvXvX",
"vXvXvXvXvXvXvXvXvXvXvXvXvXvXvXvXxXxXvX).      . @ - - @ . < T.A.A.A.7.3.3.<.<.f.g . .   ^ xXhXvXvXvXvXvXvXvXvXvXvXvXvXvXvXvXvXvX",
"vXvXvXvXvXvXvXvXvXvXvXvXvXvXvXvXvXhXzX#X  . . 4 '...a.[ @ 5 >.6.6.3.<.2.3.3.4.h.s @     / gXzXzXvXvXvXvXvXvXvXvXvXvXvXvXvXvXvXvX",
"vXvXvXvXvXvXvXvXvXvXvXvXvXvXvXvXvXhXzX).. # . f a.i.i.[ ; > d. .1.3.2.4.;.-.-.p.z @ #   ~ gXgXzXvXvXvXvXvXvXvXvXvXvXvXvXvXvXvXvX",
"vXvXvXvXvXvXvXvXvXvXvXvXvXvXvXvXvXvXMX&X  j +X=.- - - s d.[ > s ;.3.4.0.f @ : - } '.j . ( vXvXgXvXvXvXvXvXvXvXvXvXvXvXvXvXvXvXvX",
"vXvXvXvXvXvXvXvXvXvXvXvXvXvXvXvXxXxXzX).  j  Xw.$ $ + a f.-.@ @ { i. .d.t o = @ _ h.k + ^ vXvXvXvXvXvXvXvXvXvXvXvXvXvXvXvXvXvXvX",
"vXvXvXvXvXvXvXvXvXvXvXvXvXvXvXvXvXvXvX#X  j E.C.P.P.J.c.8.| @ . - - - 2 =.T.P.I.8.f.k . ^ vXjXvXvXvXvXvXvXvXvXvXvXvXvXvXvXvXvXvX",
"vXvXvXvXvXvXvXvXvXvXvXvXvXvXvXvXvXfXvX$X  F .XP.W.Y.F.m.5.| - . $ + . . r.^.I.Q.>.s.D . ( vXjXvXvXvXvXvXvXvXvXvXvXvXvXvXvXvXvXvX",
"vXvXvXvXvXvXvXvXvXvXvXvXvXvXvXvXfXlXlXlXvX;X$ 1 : k ^.m.5.i.@ # l.[.= . k. XF , 5 @ *XzXNXlXvXxXvXvXvXvXvXvXvXvXvXvXvXvXvXvXvXvX",
"vXvXvXvXvXvXvXvXvXvXvXvXvXvXvXvXgXfXlXlXvX1X. + + t |.I.5.| - $ R.W.e $ x.+Xd + + . =XvXjXlXvXvXvXvXvXvXvXvXvXvXvXvXvXvXvXvXvXvX",
"vXvXvXvXvXvXvXvXvXvXvXvXvXvXvXzXgXgXzXfXlX1X. h OX=.1 f 0. .@ $ P.F.J.z.k 2 _ _.t . *XgXzXvXvXlXvXvXvXvXvXvXvXvXvXvXvXvXvXvXvXvX",
"vXvXvXvXvXvXvXvXvXvXvXvXvXvXvXvXzXzXzXgXlX,X. h |.t.+ 4 s...@ $ P.S.W.XXt ; _ h.k . *XgXfXzXzXgXvXvXvXvXvXvXvXvXvXvXvXvXvXvXvXvX",
"vXvXvXvXvXvXvXvXvXvXvXvXvXvXvXvXvXvXxXvXvX1X. u /.G.J.k.4 : . * P.I.t 5 ' -.1.g.f . =XdXlXvXvXzXvXvXvXvXvXvXvXvXvXvXvXvXvXvXvXvX",
"vXvXvXvXvXvXvXvXvXvXvXvXvXvXvXvXvXxXvXvXzX3X. F .XU.F.J..     * P.Y.t @ #.q.;.`.l . =XvXlXvXxXxXvXvXvXvXvXvXvXvXvXvXvXvXvXvXvXvX",
"vXvXvXvXvXvXvXvXvXvXvXvXvXvXvXvXvXvXvXlXvXdXMX4X< F Y.r.o     $ P.D.Z.Z.y.W.G @ ;XNXhXlXzXzXxXxXvXvXvXvXvXvXvXvXvXvXvXvXvXvXvXvX",
"vXvXvXvXvXvXvXvXvXvXvXvXvXvXvXvXvXvXvXlXvXzXvX0X. u /.r..   # 1 [.I.S.D.S. Xh . ,XvXjXlXzXzXvXvXvXvXvXvXvXvXvXvXvXvXvXvXvXvXvXvX",
"vXvXvXvXvXvXvXvXvXvXvXvXvXvXvXvXvXvXvXvXxXzXgX6X. j W.t.+ , ].l.y 3 w.u.5.g.h . :XzXvXxXvXzXzXzXvXvXvXvXvXvXvXvXvXvXvXvXvXvXvXvX",
"vXvXvXvXvXvXvXvXvXvXvXvXvXvXvXvXvXxXzXzXvXvXgXqX. j +Xz.@ 1 |.L.o # >.u.;.p.d . ,XgXvXvXvXzXgXkXvXvXvXvXvXvXvXvXvXvXvXvXvXvXvXvX",
"vXvXvXvXvXvXvXvXvXvXvXvXvXvXvXvXxXzXgXgXvXxXvXhXjX3X< * . 1 T.T.= + -.g.g @ $XMXNXvXvXvXzXzXlXlXvXvXvXvXvXvXvXvXvXvXvXvXvXvXvXvX",
"vXvXvXvXvXvXvXvXvXvXvXvXvXvXvXvXvXzXgXgXvXxXvXvXjXeX    . 1 W.P.* @ | h.a . :XvXxXxXvXvXgXzXlXlXvXvXvXvXvXvXvXvXvXvXvXvXvXvXvXvX",
"vXvXvXvXvXvXvXvXvXvXvXvXvXvXvXvXvXvXzXvXxXvXgXfXzX9XO O   * E.T.$ @ ..j.a . $XgXzXjXxXvXlXlXlXvXvXvXvXvXvXvXvXvXvXvXvXvXvXvXvXvX",
"vXvXvXvXvXvXvXvXvXvXvXvXvXvXvXvXvXvXvXvXxXvXgXfXgXqX      e }.}.< -  .h.4 . $XgXfXxXxXxXvXlXvXvXvXvXvXvXvXvXvXvXvXvXvXvXvXvXvXvX",
"vXvXvXvXvXvXvXvXvXvXvXvXvXvXvXvXvXvXvXvXvXvXlXgXzX9X  r ].k.d d =.t.5.f.a . =XzXzXvXvXvXxXxXvXvXvXvXvXvXvXvXvXvXvXvXvXvXvXvXvXvX",
"vXvXvXvXvXvXvXvXvXvXvXvXvXvXvXvXvXvXvXxXvXvXvXzXzXwX  e oXP.@ + T.Y.>.`.3 . =XhXzXvXvXvXxXvXzXzXvXvXvXvXvXvXvXvXvXvXvXvXvXvXvXvX",
"vXvXvXvXvXvXvXvXvXvXvXvXvXvXvXvXzXzXvXxXlXlXvXxXvXqXX r W.c.+ , P.Y.k : ;X9XaXlXgXzXvXvXvXzXgXgXzXvXvXvXvXvXvXvXvXvXvXvXvXvXvXvX",
"vXvXvXvXvXvXvXvXvXvXvXvXvXvXvXvXgXzXvXvXlXgXvXxXvXrX  r XXK.$ * }..X: . rXlXlXlXvXzXvXzXzXgXgXgXzXvXvXvXvXvXvXvXvXvXvXvXvXvXvXvX",
"vXvXvXvXvXvXvXvXvXvXvXvXvXvXvXvXzXvXvXvXvXvXzXgXvXgXyX7Xe j l.l.u e $ . eXlXlXvXvXvXvXvXvXvXvXgXvXvXvXvXvXvXvXvXvXvXvXvXvXvXvXvX",
"vXvXvXvXvXvXvXvXvXvXvXvXvXvXvXvXvXvXvXvXvXvXzXgXvXgXvXpX+ < /.K.= . @ @ 0XvXjXxXvXvXzXzXvXvXlXlXvXvXvXvXvXvXvXvXvXvXvXvXvXvXvXvX",
"vXvXvXvXvXvXvXvXvXvXvXvXvXvXvXvXvXvXvXvXgXgXzXzXvX0X% j z.y.F.T.= . ' { l % 3XvXvXvXgXgXzXvXvXvXvXvXvXvXvXvXvXvXvXvXvXvXvXvXvXvX",
"vXvXvXvXvXvXvXvXvXvXvXvXvXvXvXvXvXvXvXvXlXgXvXxXzX0X+ t E.F.Y.[.< @ ;.j.s @ 4XvXgXgXgXgXzXvXvXvXvXvXvXvXvXvXvXvXvXvXvXvXvXvXvXvX",
"vXvXvXvXvXvXvXvXvXvXvXvXvXvXvXvXzXlXvXvXvXjXvX0X% D [.n.F.n.y y l.c.8.4. ._.v o 1XfXsXgXvXxXvXvXvXvXvXvXvXvXvXvXvXvXvXvXvXvXvXvX",
"vXvXvXvXvXvXvXvXvXvXvXvXvXvXvXvXvXvXvXvXvXjXvX6X  u {.L.!.b.X & {.R.:.:.f.'.y   >XlXfXgXxXxXvXvXvXvXvXvXvXvXvXvXvXvXvXvXvXvXvXvX",
"vXvXvXvXvXvXvXvXvXvXvXvXvXvXvXvXvXvXzXzXvXfXgX6X  7 Z A A S n n S A Z Z Z H & X >XlXjXvXxXvXlXgXvXvXvXvXvXvXvXvXvXvXvXvXvXvXvXvX",
"vXvXvXvXvXvXvXvXvXvXvXvXvXvXvXvXjXxXgXzXzXgXgX7XX & M B b B C C n n M C M N = . ,XvXjXvXvXlXgXfXvXvXvXvXvXvXvXvXvXvXvXvXvXvXvXvX",
"vXvXvXvXvXvXvXvXvXvXvXvXvXvXvXvXxXjXvXkXlX9Xi U *.#.%.$.v.$.$.$.%.%.@.@.@.` _ ) Y i <XzXMXvXgXzXvXvXvXvXvXvXvXvXvXvXvXvXvXvXvXvX",
"vXvXvXvXvXvXvXvXvXvXvXvXvXvXvXvXvXvXvXlXkX,Xo u @X(.~.!.~.~.~.!.!.R.k.:.k.e.:.].d . $XgXfXzXzXzXvXvXvXvXvXvXvXvXvXvXvXvXvXvXvXvX",
"vXvXvXvXvXvXvXvXvXvXvXvXvXvXvXvXvXlXvXvXvX,X  8 O.o.O.O.o.A X.A o.O.J J H J J K 8   %XvXvXvXvXvXvXvXvXvXvXvXvXvXvXvXvXvXvXvXvXvX",
"vXvXvXvXvXvXvXvXvXvXvXvXvXvXvXvXlXlXvXdXzX,X  & N B B B V V V V V V V C n C B C 7   %XvXkXlXlXvXvXvXvXvXvXvXvXvXvXvXvXvXvXvXvXvX",
"vXvXvXvXvXvXvXvXvXvXvXvXvXvXvXvXlXlXvXfXzX1X  & w 0 0 0 0 0 0 9 m 0 m 0 0 q m 0 =   %XvXgXvXzXzXvXvXvXvXvXvXvXvXvXvXvXvXvXvXvXvX",
"vXvXvXvXvXvXvXvXvXvXvXvXvXvXvXvXlXlXvXgXzX,X              X X X X X X X X X X X   . %XvXgXzXgXvXvXvXvXvXvXvXvXvXvXvXvXvXvXvXvXvX",
"vXvXvXvXvXvXvXvXvXvXvXvXvXvXvXvXlXvXvXgXzX9XR R R R T Q I L L L I Q Q R R P L T R R 1XvXgXzXlXlXvXvXvXvXvXvXvXvXvXvXvXvXvXvXvXvX",
"vXvXvXvXvXvXvXvXvXvXvXvXvXvXvXvXvXjXxXzXzXzXvXvXvXvXgXgXgXgXzXzXzXzXvXvXzXzXvXvXlXlXvXxXvXvXkXvXvXvXvXvXvXvXvXvXvXvXvXvXvXvXvXvX",
"vXvXvXvXvXvXvXvXvXvXvXvXvXvXvXvXvXvXxXzXxXjXvXgXxXzXsXsXzXvXxXxXxXzXvXlXgXvXxXvXlXlXvXvXxXvXvXvXvXvXvXvXvXvXvXvXvXvXvXvXvXvXvXvX",
"vXvXvXvXvXvXvXvXvXvXvXvXvXvXvXvXvXgXzXzXvXvXvXvXvXvXgXgXvXvXvXvXvXvXvXvXlXlXvXvXgXlXvXvXvXvXgXvXvXvXvXvXvXvXvXvXvXvXvXvXvXvXvXvX",
"vXvXvXvXvXvXvXvXvXvXvXvXvXvXvXvXzXzXzXfXlXvXhXvXvXvXvXvXvXvXvXvXvXvXvXvXvXzXzXzXvXgXgXvXjXlXzXzXvXvXvXvXvXvXvXvXvXvXvXvXvXvXvXvX",
"vXvXvXvXvXvXvXvXvXvXvXvXvXvXvXvXzXgXzXlXlXlXvXjXvXlXvXvXvXvXvXzXgXvXxXxXvXzXgXgXgXvXvXvXvXzXzXzXvXvXvXvXvXvXvXvXvXvXvXvXvXvXvXvX"
};
