/* XPM */
static char *bb884207a5a14b00b99aaf3dea4b183a3X9zyE2PXIwBKNVO[] = {
/* columns rows colors chars-per-pixel */
"64 64 256 2 ",
"   c #003800",
".  c #014500",
"X  c #024C00",
"o  c #0B4C01",
"O  c #0A4C0B",
"+  c #134D05",
"@  c #035400",
"#  c #0B5401",
"$  c #055A00",
"%  c #0C5C00",
"&  c #0C550B",
"*  c #115D01",
"=  c #125605",
"-  c #134A11",
";  c #056200",
":  c #0C6300",
">  c #0C6B00",
",  c #056900",
"<  c #136401",
"1  c #146B01",
"2  c #1B6D03",
"3  c #1B6C0B",
"4  c #176607",
"5  c #0E7300",
"6  c #0E7800",
"7  c #147300",
"8  c #1B7402",
"9  c #157B01",
"0  c #1B7C02",
"q  c #1C740A",
"w  c #1D7C0B",
"e  c #157209",
"r  c #1D7812",
"t  c #1E6E11",
"y  c #227C03",
"u  c #237B0B",
"i  c #247507",
"p  c #247C13",
"a  c #287B15",
"s  c #2A7211",
"d  c #387F21",
"f  c #1D8202",
"g  c #1D830A",
"h  c #1A8802",
"j  c #1D8D06",
"k  c #238402",
"l  c #2A8403",
"z  c #248A03",
"x  c #2A8B02",
"c  c #24840B",
"v  c #2A840B",
"b  c #248A0B",
"n  c #2B8C0B",
"m  c #348A09",
"M  c #2B9306",
"N  c #2C930B",
"B  c #29960A",
"V  c #329405",
"C  c #33930C",
"Z  c #339B0C",
"A  c #3A9C0C",
"S  c #379704",
"D  c #258313",
"F  c #2B8313",
"G  c #2C8B13",
"H  c #2A8719",
"J  c #338B14",
"K  c #3B8D13",
"L  c #348C1B",
"P  c #378819",
"I  c #2D9313",
"U  c #2D9716",
"Y  c #349414",
"T  c #3C9414",
"R  c #359C13",
"E  c #3A9C14",
"W  c #34951B",
"Q  c #3A941B",
"!  c #349C1A",
"~  c #3C9C1B",
"^  c #39A20B",
"/  c #35A213",
"(  c #3CA415",
")  c #3CA41B",
"_  c #3AA819",
"`  c #3FB111",
"'  c #348C23",
"]  c #3B9422",
"[  c #3C9A23",
"{  c #369825",
"}  c #3DA522",
"|  c #3EB42A",
" . c #419B0D",
".. c #439B19",
"X. c #44A90B",
"o. c #47B20E",
"O. c #42A314",
"+. c #44AB14",
"@. c #4AAC15",
"#. c #43A41C",
"$. c #44AB1C",
"%. c #4AAD1D",
"&. c #4BA51C",
"*. c #45B214",
"=. c #4AB315",
"-. c #45B31C",
";. c #4CB31C",
":. c #4CBA1D",
">. c #4CBA14",
",. c #55B41C",
"<. c #54BB1D",
"1. c #56B718",
"2. c #53B115",
"3. c #64B61B",
"4. c #469C25",
"5. c #4A922A",
"6. c #43A423",
"7. c #4AA424",
"8. c #44AB23",
"9. c #4BAD24",
"0. c #4CAC2B",
"q. c #46A82A",
"w. c #52AB27",
"e. c #45B323",
"r. c #4CB424",
"t. c #4EBB24",
"y. c #4DB32C",
"u. c #4DBA2A",
"i. c #46B02C",
"p. c #52B525",
"a. c #53BB24",
"s. c #53B42B",
"d. c #54BC2B",
"f. c #5CBC2C",
"g. c #5AB827",
"h. c #4EAB34",
"j. c #55AD34",
"k. c #4DB332",
"l. c #54BB33",
"z. c #59B735",
"x. c #62BC29",
"c. c #64BB35",
"v. c #65AE33",
"b. c #58C31B",
"n. c #64C91D",
"m. c #4EC128",
"M. c #5BC324",
"N. c #5CCA25",
"B. c #55C22B",
"V. c #5CC32C",
"C. c #5CCA2D",
"Z. c #54C525",
"A. c #5CC233",
"S. c #5BC736",
"D. c #5FD425",
"F. c #62C424",
"G. c #64C42B",
"H. c #63CB2C",
"J. c #6BCD2C",
"K. c #67C827",
"L. c #72CD2C",
"P. c #64D22C",
"I. c #6BD42B",
"U. c #74D62C",
"Y. c #64C334",
"T. c #64CC34",
"R. c #6ACC34",
"E. c #63C43B",
"W. c #65CC3B",
"Q. c #6CCB3B",
"!. c #6AC537",
"~. c #73CB39",
"^. c #64D233",
"/. c #6BD333",
"(. c #6CD43B",
"). c #6BD838",
"_. c #73D334",
"`. c #7BDD35",
"'. c #73D53B",
"]. c #7CD53C",
"[. c #74DB3B",
"{. c #7BDC3B",
"}. c #76D835",
"|. c #74E13B",
" X c #7BE33C",
".X c #7BE337",
"XX c #6BE133",
"oX c #6CB847",
"OX c #5AB140",
"+X c #6DCD42",
"@X c #69C944",
"#X c #72C945",
"$X c #6ED343",
"%X c #6DD844",
"&X c #73D542",
"*X c #74DB43",
"=X c #7BDC44",
"-X c #79D749",
";X c #7ADB54",
":X c #75C856",
">X c #7CE243",
",X c #7EE943",
"<X c #7CE34B",
"1X c #75E347",
"2X c #7AE553",
"3X c #6DE045",
"4X c #5EC746",
"5X c #82DD3B",
"6X c #85E53C",
"7X c #93F43E",
"8X c #84DC45",
"9X c #85DA49",
"0X c #4CA839",
"qX c #83E243",
"wX c #84EB44",
"eX c #8BEB44",
"rX c #83E44B",
"tX c #84EA4C",
"yX c #8CEC4A",
"uX c #8AE548",
"iX c #92EC4D",
"pX c #95EC46",
"aX c #559F2E",
"sX c #519B2A",
"dX c #589D2D",
"fX c #55962A",
"gX c #88E956",
"hX c #93ED52",
"jX c #95E959",
"kX c #8DF353",
"lX c #8DF758",
"zX c #94F354",
"xX c #9BF453",
"cX c #57982C",
"vX c #9DFB5B",
"bX c #94F659",
"nX c #A3F94C",
"mX c #A5FC54",
"MX c #ACFF54",
"NX c #A4FE5C",
"BX c #ABFF5C",
"VX c #A4F659",
"CX c #B3FF5A",
"ZX c #B5FC53",
"AX c #ABF749",
"SX c #9AF765",
"DX c #92EB61",
"FX c #A4FE62",
"GX c #ACFF62",
"HX c #A9FD69",
"JX c #B3FF63",
"KX c #B5FF6C",
"LX c #AAFE76",
"PX c #B2FF71",
"IX c #8AD96E",
"UX c #C2FF77",
/* pixels */
"MXBXzX+.t.Z 9 w $ X X jXJXMX`.{.Y.0 8 c.NXcXV.+.2.VXJXVXs.k._ 9 g : X X 9XBXNX2.r.$.h z 1 X   w._.n.cXHX0X. + + o . J T.a.{.aXpX",
"pXxXrXS R N n n Q J m ~.9X].@.w.Q 8 < w.hXtX8.M S ~.9X~.#.! ) ! [ u < < ].NXjX .C Z Z N J K K v.].}.U.-Xv.# o = t < w.=X[.}.`.}.",
"U.}.c.1 7 I y.p.8XFXSX .l v @ X X # . P c.d.f > 1 1 1 8 c f R $XW.r.T T 8XbX-X8 : 9 r.$.&XHXGXhX>X'.y 8 < @ X 3 h.T =XFXbXb.o.*.",
".XwXc.1 : W l.%.qXNXbXO.G H X X X # . P E.A.g , 1 q u 8 D D ~ $X[.+.x x _.lX0X1 > 0 k.#.&XPXNXeX>X*Xy 1 3 $ X 1 T V _.FXFXG.r.y.",
"b.N.d.~ 4.K F y p.&XW.E Y J 3 3 4 % # K (.W.I 7 q : : : 3 1 u j.$.*.M.b.`.uX;Xy 7 w L l %.=XJ.eXdXiX9.6.[ : % K ~.J.R.G.Y.Y c a ",
"o.` :.Q.-XK X @ n 8.) R E J F H p 1 < ..'./.Z 9 q % @ X X @ < J k d.<X,X.X`.-Xv c q : ; k %.^ qXBXBX'.%XS.0 8 w.HXVXg.x C > X @ ",
"*.*.:.C.Q...X o J z.y./ M C F a e 7 ; .._._.V 5 w @ X # @ . : Q c A.2X[..X`.-Xv p r 1 : b r.+.qXCXmXJ.W.m.f 1 ..FXVXG.C ( > X @ ",
"C.Z.C.*X=X..X = < 8 5 ) r.#.: < r { n Q.xXdXV.#.0.v i d oX#Xz.Y Y ) / A qXmXjX8 : 3 a u ! l.t.[.dXpXF.Z.m.j 0 7.9XqXG.( 8.n L ' ",
"H.M./.=XgX4.X & X X $ } r.6.: @ 8 0...~.JXBXJ.a.d.C l  .gXkX(.V / N z k uXGXSX< $ > G n ) B.M.[.yXwXb.Z.:.j h ) *X[.M.X.r.) W { ",
"H.H._.qXuX&.$ & 4 < : #.f.$.> : y &.&.].mXmXU.1.B.V l  .eXeXP.^ ( Y G l 8XJXSX1 ; 7 n x ( B.<.[.kX,XK.N.m.j j } 1X).F.o.,.E W W ",
" XwXeXxXnXL.l c q.@Xc.jXNXiX9.6.G.VXxX6XU..XwXtX<Xa.( g.fXcXaX{.rXE : < 8XVXjXm l E *X*Xe.f 0 d.{.}. X,X(.z f U 1XI.6XcXkXE 0 D ",
"eX6XeXNXJXL.x N a.(.G.VXJXxX;.+.L.BXBXsXU.U. XlX2Xd.e.V.mXnXdXqXkX#.$ : -XFX9Xx k A *X<Xs.y l z.[.).wXkX&Xk 0 6.(.U.sXNXSX..w p ",
"eXyXyX=X9Xg.C M M.{.].qXuX5XJ.F._.yXyX X).1X*X*X2X8.W &.mXnXiXJ.&XT : : Y.zX=X%.O.%.d.z.[ 1 1 j.rX}.[.<X!.8 1 ..uX6X`.{.gXJ < 3 ",
"xXGX=X9 9 N 9.O.[.bXkX2.X.<.cXNX=X@.X.N.[.(.V.a.u.9 5 m BXMX8XS ..l 7 8 8.a.M.rXSX+X7 7 < @ X j.kX XV.V.&.$ X 5.KXBXJ.S ..< X # ",
"VXBXqXk z I q.#.=XbXbXa.;.g.NXBXgX;.*.N.{._.F.:.u.f 1 m BXJXrXS 6.F 3 7 $.V.N.tXkX~.7 1 * # X j.tX XM.A.9.$ X 5.PXGXQ.#.0.1 . o ",
"qXuXJ.f k f F y f.=X(.C k S ].{.Y.V S M.dXyXK.<.u.f 1 l yXfXR.k F q : : ) u.*./.|.R.#.j.d X X c.vXsXM.d.s.$ X 5.HXNXs.9 F 3 4 4 ",
"P./.d.k v 1 % @ R A.j.8 @ 1 r.t.( k 8 G.BXNXP.t.l.0 8 l [. Xs.1 8 : $ % W 6.$.V.N.N.|.gX5.X . oXKXmXF.B.q.$ X P hXiX..@ % 3 p q ",
"^.^.d.0 v 2 : : ~ E.z.2 $ 7 u.B.9.l y !.GXmX^.u.z.u 2 v >XtXz.< u : @ @ Y %.%.M.N.D.XX<X] X X oXKXVXF.A.h.$ X P bXaX..$ * 3 q q ",
"qXtX&XE #.y @ X Y 9.7.y.z.0.-.9.L : @ 4.qX`.:.#.4.< # i R.[.0.% @ H j.w.8XhXyX.X.XP.:.A.Q < * j.rX`.@.7.] # X F 9X=X7.w H 4 # # ",
"uXiX=X+.9.v X X v 9.#.E.Q.Y.( #.a X X L '.I.+.E 4.% . < R.'.4.X @ ] &XG.xXBXMX6X6X[.e.k.K 2 < j.[./.#.4.L @ . u &X'.6.D ' : X + ",
"pXpX{.X.p.v X @ F 7.~ A.(.H.( q.d o X ' &XH.%.~ 4.< X 2 T.'.4.@ @ T R.F.xXCXMX5X`.(.9.h.L < < j.*X^.#.~ G : @ m ].].9.b W : o - ",
"AXMXfX}.<Xk.t a q 0 9 &XkX[.M Q d X X H E.d.( Y Q u 3 D T.(.h.2 8 Y %.X.pXZXnX3.F.%.7 8 1 @ @ { S.B.N n ~ y.0.~.BXNXrXE.@X8 X - ",
"ZXMXnX.XtXs.8 a q 8 7 ;XkX,XV Y s X @ ' c.d.) C Y f 5 h ^.).h.7 7 W 9.+.pXCXmXx.d.) > < % @ @ [ @XB.M k A S.A.'.JXBXyX&X-X7 X o ",
"7X7X7XI.{.r.9 H q 1 1 @X>X/.Z Y a @ @ F j.y.~ R R z h B ).[.l.0 c Y ! A 5XnXiX,.p.8.c F q % @ { A.t.Z C Z $.O.Y.iXdX'.%.A.9 % 4 ",
"J.J.H.1.a.#.G ' < $ $ q.s.;.U U D : : 0 Q Y R ) ) _ / -.wXkXW.M E n 9 f x.L.K.;.+.r.d.E.W : : ' } _ / ( E 0 0 C g.G.C 9 f z G L ",
"(.%X^.a.a.( k v < X @ 4.l.-.N I 0 : ; 0 Y n R ) _ 8.} %.qXwXH.V C n g 9 a.J.H.:.-.;.p.Y.C $ $ G q.8.) / R l D [ f.Y.W 9 9 z b l ",
"d.t.t.T.^.H.F.~.7.K Y y.t.:.$.8.} 0 7 W A.d.$.E ~ c i K VXmX_.A #.c e 5 T.,X|.Z.m.t.E ) #.%.w.K y c ! _ ! 9 1 L +X$X[ 0 f ( %.$.",
"/ B -.1X|.sXNXFX9XQ.@Xd.-.m.S.W.0.f c k.1X*X;.( ~ 1 @ i BXCXqX+.s.c $ ; $XvXkX^.^.B.f 9 p.SXSXJ @ : Y _ U , $ L =X*X~ 9 f d.(.^.",
"_ Z ;.[.I.6XcXvX=XY.W.u.e.u.A.E.k.G g i.%X).=.A ..: @ i JXJXqX+.p.c % : +XlX,XP./.V.f 0 r.gXDXJ @ : { q.! 5 ; m =X[.#.9 0 p.H.M.",
"t.a.R.vXxXU.2.1.%.A ( B B B C C n Y N e.C.b.{.rX-XJ 8 v 8XL._./.*XJ X @ 0.C.C. X>XR.R U _ d.l.J u u G b g 0 9 ) }.[.r.C V '.yXeX",
"Z.<.L.GXJX}.S +.Z n N f 9 9 0 9 n ~ N +.Z.<.yXFXSXC 9 N R.M./.1XgXK . o ..;.>.,XzX&X~ ! / ` $.n c c w w u D c ~ [.|.u./ ^ >XxXdX",
"b.b.L.xXVX_.Z +.( R E M n c c 0 c R A _ d.p.8XzXkXZ j Z A.d.^.[.<XC X # ~ p.:.|.uX'.R R _ :.:.A z b g D c G v #.(.T.e.R A qXnXAX",
"P.).x.l l E u.r.qXxXzXH.S.l.7 7 h _ 6.n 1 1 g.'./.>XtX*XN x / t.a.Z y a q 7 f ;.:.+.s.%.'.NXGX_.a.V.b f I $X-Xs.1 8 c n k 8XCXZX",
").(.c.y 9 } 4Xd.eXmXcXJ.M.d.8 1 b i.0.y % % s.[.P.wXzXrXf 0 R d.d.Z 9 9 q 1 9 8.8.r.l.p.{.GXBX`.b.V.b 0 Y ;XgXz.< 2 u v l uXJXZX",
"/.[.z.0 c G [ Q Q.tX>X{.].~.2 * q [ Q T  .m p.H.P.|. X[.^ / #.6.) $.O.#.w : 7 7.0.9.[ E G.fX6X`.I.W.n g G h.OX4.8 0 0 f c +XhXpX",
"_.=Xl.9 8 : @ @ Y a.=.yXGXjX= # < a 7 Y.PXHXR.;.*.=.=.:.%X1Xs.0 0 A.SXSX8 @ : 7.s.~ > , x <.1._.kXgXW G a @ X : J c 0 9 5 } ;.o.",
"I./.d.9 8 1 # @ Y a.@.zXKXjX# X * a 8 !.HXFXG.@.a.t.a.a.<X2Xs.y 7 A.SXSX8 . $ #.&.E > > N V.t.*XaXtXY L a @ . : G G w q 1 q.u.-.",
"6XsX'.A ~ v * % #.V.M.{.8X=XT L H 3 1 ..'.J.=X8X*X( / ( n m 7.#XY.Y.p.s.] F C Q.&Xl.7 5 b / N T.tX=Xl i u 4.7.Q c H q % % j.%XC.",
"fXcXwX:.z.Q < 2 9./.J.K.F.H.r.k.{ : : v ( V rXHXFXS f f X . K LXLXx.8 y j.c.f.>XtXW.9 9 f f 9 y.[.R.7 : y 0XbXE.f H 4 @ # c.bXeX",
"nXfXwX=.;.Y 1 > +.J.G.K.K.F.*.u.{ > : v i.) gXLXFXS z f % X K LXLXc.0 l &.a.<.|.,XW.9 9 f k k s.=X~.8 : y ;X<Xd.f G 1 @ X c.iX6X",
"ZXmXfXH./.e.c c r.^.H.tXyXwXN.B.i.9 0 c n G F F m g.A.l.J a J Q C 7.r.%.'.wX X.X>XW.> > n #.E &XlXrX%.) ) / _ ` s.l.L 7 8 !.iX5X",
"CXJXvX}.>Xa.k z ;./.F.zXFXcXF.C.8.f w c b D < # * c.<XT.T 4.J 1 > R A.a.wXfXaX.XqXY.1 : n p.$.=XbXlXa.p.6.N j ( Y.E.~ y 0 #XhXuX",
"xXvXyXJ./.<.Z V <.}.J.yXxX6XK.L.p.0 p p p u i 2 8 G.`.J.n W L g h / Z.>. XaXeXqXyXY.1 : b g.;.[.lX,XF.g.p.R B ) d.Y.Q y 0 oX;X&X",
";.@.1.1.<.R.*X[.aXNXxX3.X.1.VXGX#X1 q % @ % 4.c.x.xXNXyXk 9 G k.8.C.|.).N.b.F.xXGX-X@ @ ~ rX*XM.>.b.dXNXbXA.A.$.k l < @ @ w b k ",
"r.%.,.g.a.T.>X{.xXBXBX1.S 1.GXGX9X< 3 * # X ..Y.c.SXBXiXk w I y.e.C.[.|.M.<.G.NXBX9X@ X Q gXtXN.1.1.mXBXvXK.W.$.9 u * X X q c c ",
"Y W E 9.%.V.).[.5X5X5XL.M.F.~.0Xj.< 4 = + X ..Q.Y.bXMXuX7 > c y.e.V.^.C.R.J._.5XiXc.# @ J +XV./.K.L.6XsXqX@.$.#.n W H i p u q w ",
"% < > G B _ Z.C.$.V S 6XvX<Xf 0 3 X # & & # 9.=X'.uXpX].: @ y s.r.r.;.=.wXcXaX1.,.T @ @ 8 E V =XJXdXb.>.} h 9 n s.r.S.;X;Xv $ % ",
"% @ : { b e.(.W.i.) X.6XaXqXf D t X # . . . 9._.J.yXFX0X* X u z.w.s.%.X.6XfXaX1.,...$ X 8 #.V ].VXdXb.m.| g 9 I ;.o.b.H.W.y % 4 ",
"x.p.0.0 c Y 9.r.I k l uXmXeXO.~ ] 1 % 5.v.3._.6X{.x.f.0.@ @ 3 4.T c.qX`.}.I.P.K.'.w.1 1 C r.%.8XBXmXK.N.m.j g ) '.n..XaXgXl < 4 ",
"xXFX;X9 0 c E E 0 7 1 hXBXdX2.z.~ y 8 oXUXJXdXyXrXA l i @ X 4 P y Q.GXNXG.X.>.|.<X+Xw 7 ( (.M.xXJXNXJ.R.S.U I r.>X.XfXcXHXC 2 i ",
"pXvX&X9 9 c A Z 0 > 7 gXGXdX2.p.) 0 7 c.HXBXeXtXrXA b v $ X : ] v Q.FXNXH.-.m.3X2XS.9 9 ^ N.1.eXMXBX'.Q.l.I b 0.rX`.fXFXFXV : 8 ",
"n.F.e.h f q.$X$Xl.~ T 9XhXpX6XtXS.9 5 9.8X5XK.a.d.k 0 y v ' p 1 1 9._._.^ B B B I I U b t.aXyX`.U.J.V l c 7 > Y !.K.F.F.G.Q.&X+X",
":.p.e.b 9 y.gXrXV.$.9.&X5X6XfXFX%X6 5 $.'._.a.$.r.9 7 8 ~ [ H ; $ T R.G.n g g f g w { G A.vXvX_.M.f.8 1 2 < % u E.F.2.2.@.>XbXaX",
"0.0.} j b 8.&X&Xa.( +.=XqXeX6XkXA.9 9 #.*X[.y.8.q.n y l J L D > > ~ Q.!.G q r H w H ' F p.bXrX_.F.W.y 3 2 < % H z.g.F.1.g.R.{.{.",
"q 9 0 g G 0 9 7 z z x rXxXqXX.O.~ 7 7 9.<X*Xn > 5 ;XSX9X: $ 1 D w 6.+X!.1 @ $ 3 p 2 @ $ y %.O.'.aX<X1 # # X X 4 6.S U.cXSX .9 k ",
"1 > 5 n c 0 q 8 0 k k <XFXyX^ O.J u 8 w.*X=Xn ; > gXHX9X% $ 1 0 9 6.T.W.1 @ $ 3 i 1 @ @ 0 9.O.'.lXtX< = = X X 4 q.V _.NXSXT 8 p ",
"A A S S C y 1 < G ~ A &XaX`.X.#.] < < 4.*X$XY 9 f =XxX9X< % 8 ! B e.P.A.w $ < K m l : $ w W C T.wX&X< # # * $ 1 { N (.gXDXK < t ",
"bXSXrX=.g.v @ X 6.@XA.V.b.<.;.l.L @ X F A.V.9.9.;.(._.c.2 e W @XS.C.N.H.G u v z.Q.p.w r p 0 5 $.H.Y.< # % i 3 p W N r.&X#Xi X # ",
"hXbXqX@.z.v X X ~ W.S.A.F.M.;.y.Q @ X J T.Z.-.+.*.H.{.R.y 1 W @XT.C.M.R.L q y f.T.r.9 r r u 8 9.R.g.: X # 3 3 w z z ;.+X:X4 X o ",
"_.[.T.A T 4.4.7.9.a.r.W.[./.-.s.] $ @ Q &X^.Z.*.=.H./.f.1 : n u.+.H.[.-Xu : 8 !.(.a.0 r 3 < < ..f.p.G a p q e W W.M.a.W.:Xs o + ",
"<.a.%.M k z.DXbXC.*.*.1XtX>X*.u.[ : < 7.<X).C.-.a.C.T.l.1 : 0 ) A Q.zXgXi X < #X=Xd.8 p 4 X X J p.;.#.7.[ 7 1 ~ SXzXR.;XIXoX+ o ",
"B.B.e.M l 7.rXqXM.^ -.*X<X1Xt.u.[ : : ..=X[.C.u.d.C.S.l.4 : 9 8.E Q.gXgXa @ < #X=XV.9 p 4 # @ K p.=.Z R W 7 1 [ gXuXJ.-XIXh.o + ",
"t.S.e.9 9 6.qX_.+.B Z ( R E $.y.{ : : 7.qX[.( b n E ( Y & & 1 n z $.C.W.2 @ < #X&XV.0 w q q 1 0.W.R.$._ W , ; L 9X].6XyXDXi . - ",
"m.B.-.9 7 #.[.[.$.z z M N N s.y.{ : : ..=X{.) f b C R c O O < n k ( Z.V.1 @ < #X=XB.9 w u u 8 z.*X/.( ! W > ; J -XL.6XxXFXi + - "
};
