/* XPM */
static char *_936b085061b480ffdeb44828e5736fftP7K1TKvDyu81gsA[] = {
/* columns rows colors chars-per-pixel */
"66 64 256 2 ",
"   c None",
".  c #491F1E",
"X  c #842423",
"o  c #4F1615",
"O  c #6B3332",
"+  c #080101",
"@  c #2C1311",
"#  c #280F0E",
"$  c #5C1312",
"%  c #090202",
"&  c #4A1A19",
"*  c #3F1615",
"=  c #320303",
"-  c #3F1F18",
";  c #251212",
":  c #4A1110",
">  c #210B0A",
",  c #1D0C0B",
"<  c #796C6C",
"1  c None",
"2  c #170908",
"3  c #501915",
"4  c #2C0C0B",
"5  c #27120F",
"6  c #350D0C",
"7  c #7E2A26",
"8  c #2F120D",
"9  c #461D1A",
"0  c #3D1513",
"q  c #871816",
"w  c #851F1F",
"e  c #572015",
"r  c #240E0E",
"t  c #6C2521",
"y  c #412F2F",
"u  c #100505",
"i  c #120606",
"p  c #2A100F",
"a  c #391712",
"s  c #481C19",
"d  c #301513",
"f  c #441917",
"g  c #270809",
"h  c #4D302D",
"j  c #721F1E",
"k  c #351211",
"l  c #41100F",
"z  c #5A504F",
"x  c #6D6363",
"c  c #381F1D",
"v  c #1F0707",
"b  c #200B0B",
"n  c #34201D",
"m  c #160808",
"M  c #321513",
"N  c #561E1D",
"B  c #696362",
"V  c #260F0B",
"C  c #24100C",
"Z  c #130505",
"A  c #290607",
"S  c #733A2C",
"D  c #665858",
"F  c #555253",
"G  c #847777",
"H  c #230B0B",
"J  c #887C7C",
"K  c #8D8585",
"L  c #512A20",
"P  c #261210",
"I  c #622620",
"U  c #783D2F",
"Y  c #534040",
"T  c #0F0607",
"R  c #463738",
"E  c #744739",
"W  c #7A6E6E",
"Q  c #560C0C",
"!  c #625857",
"~  c #62211D",
"^  c #AD1F21",
"/  c #5F5B5B",
"(  c #140404",
")  c #3C302F",
"_  c #AAA8A6",
"`  c #350F0D",
"'  c #381411",
"]  c #82523F",
"[  c #594E4D",
"{  c #190204",
"}  c #5B3427",
"|  c #5A4F4F",
" . c #6F3729",
".. c #3E393A",
"X. c #5C4F4F",
"o. c #7C3F2E",
"O. c #AB5742",
"+. c #46201C",
"@. c #140101",
"#. c #220505",
"$. c #76615F",
"%. c #1F0000",
"&. c #49251F",
"*. c #823F32",
"=. c #6E342A",
"-. c #C41D20",
";. c #991F21",
":. c #841719",
">. c #767271",
",. c #901719",
"<. c #0F0305",
"1. c #B41A1D",
"2. c #761617",
"3. c #450C0D",
"4. c white",
"5. c #FDA97D",
"6. c #571E13",
"7. c #FCA87C",
"8. c #551E13",
"9. c #C3C3C4",
"0. c #4E1D13",
"q. c gray84",
"w. c #230E0A",
"e. c #A7755C",
"r. c #FBA67B",
"t. c #0D0505",
"y. c #FDA87C",
"u. c #FFAC80",
"i. c #FFFFFE",
"p. c gray99",
"a. c #481B12",
"s. c #EEEEEE",
"d. c #B7B7B7",
"f. c #F7F7F6",
"g. c #FEFEFE",
"h. c gray86",
"j. c gray85",
"k. c #FFAA7E",
"l. c #727171",
"z. c #3A1710",
"x. c #D87A58",
"c. c #45241B",
"v. c #FDA579",
"b. c #BC6247",
"n. c gray22",
"m. c #B75E47",
"M. c #D59070",
"N. c #A9AAAA",
"B. c #66615F",
"V. c #F39972",
"C. c #939292",
"Z. c #E78C66",
"A. c #4D2920",
"S. c #F3F2F0",
"D. c #9D6953",
"F. c gray23",
"G. c #98634C",
"H. c #531E13",
"J. c #868585",
"K. c #E7E6E5",
"L. c #191919",
"P. c #777777",
"I. c #EBECEB",
"U. c #F8A57A",
"Y. c #D68360",
"T. c black",
"R. c #E1E1E1",
"E. c #E68660",
"W. c #302F2E",
"Q. c #AC5B48",
"!. c #EA916A",
"~. c #653629",
"^. c #FDA77B",
"/. c #25130F",
"(. c #DC8764",
"). c #371C16",
"_. c #F7A176",
"`. c #F49E75",
"'. c #A1A09F",
"]. c #4C4949",
"[. c #91533D",
"{. c #B2B2B2",
"}. c #BBBCBC",
"|. c #F8C4A7",
" X c #FFAB7E",
".X c #CA7455",
"XX c #888888",
"oX c #D66F4E",
"OX c #684636",
"+X c gray11",
"@X c #C88168",
"#X c #3A2721",
"$X c #ED956D",
"%X c #E49772",
"&X c #A5A5A5",
"*X c #402D27",
"=X c #16100E",
"-X c #E18C68",
";X c #C67B5E",
":X c #FFAD81",
">X c #514F4F",
",X c #845A44",
"<X c #989898",
"1X c #424141",
"2X c #CFC9AB",
"3X c #7E7E7E",
"4X c #C8C8C8",
"5X c #A15B47",
"6X c #E3805C",
"7X c #A5A2A3",
"8X c #CBCBCB",
"9X c #9C9A99",
"0X c #2F2A2A",
"qX c #835743",
"wX c #CFCFCE",
"eX c #F0DFD0",
"rX c #532D22",
"tX c #D9BDB8",
"yX c #252120",
"uX c #6E4131",
"iX c #C0C0C1",
"pX c #704E41",
"aX c #83807E",
"sX c #4C3930",
"dX c #9F7A66",
"fX c #6C6C6C",
"gX c #926D59",
"hX c #F0D4C5",
"jX c #F0CAB4",
"kX c #F1EBDE",
"lX c #A4A078",
"zX c #9B5743",
"xX c #F9F6ED",
"cX c #BA765B",
"vX c #5F3C2E",
"bX c #B26E54",
"nX c #633F30",
"mX c #965643",
"MX c #734535",
"NX c #D5B7B1",
"BX c #BC6D51",
"VX c #8C4B38",
"CX c #D4D3D3",
"ZX c #7F4F3E",
"AX c #655C58",
"SX c #FBAB81",
"DX c #C7C8C8",
"FX c #B25038",
"GX c #EED0C1",
"HX c #B25F4D",
"JX c #B05841",
"KX c #CE9D66",
"LX c #FDAB80",
"PX c #B04F37",
"IX c #C1A973",
"UX c #DBB38A",
/* pixels */
"                                                                                                                                    ",
"                                                      X O O O O O O O O O 7                                                         ",
"                                            : k 9 * . 0 @ @ @ @ @ @ @ @ @ s = X                                                     ",
"                                            o ` a C m V a.0.0.0.0.0.0.0.0.a 2 d :                                                   ",
"                                            o s a 0./.1 z.8.8.8.8.6.6.6.6.H.0.8 M 7                                                 ",
"                                          : s z.0.6.H.0./.z.8.8.8.8.6.6.6.8.8.H.a 0 7                                               ",
"                                          l ' 8 0.6.6.6.a.8 H.8.8.8.6.6.6.6.6.6.0.V f                                               ",
"                                          $ 3 e 6.6.8.6.6.a.8 H.8.8.8.8.8.8.6.8.H.z.c N                                             ",
"                                            3 e 6.a.w.w.w.w.t.w.w.w.w.w.w.w.w.w.a.0., h                                             ",
"                                            3 e a.A.G.e.e.e.e.e.e.e.e.e.e.e.D.#Xz.0., h                                             ",
"                                            3 e z.vXr.u.u.u.u.u.u.u.u.u.u.:X^.OX8 0., h                                             ",
"                                            3 e z.OXr.v.v.v.r.5.5.5.r.v.v.v.y.pXz.a., h                                             ",
"                                            3 a.A.;X.Xb.b.b.Y.5.5.r..Xm.b.b.x.Y.rXt.1 9                                             ",
"                                        t s +.- MXM.vX).- ).qX5.5.U.nX).- ).uX%XZXt./.&.I w                                         ",
"                                        M O.zXc..XD.D.@XzX5XM.5.5.r.M.5XmX@XD.D.Y.A.5XJX@ .                                         ",
"                                      $ # m.cXc.x.$XGXK.W.1XhX5.y.SXeX].0XK.hX%XZ.rX;Xb.C *                                         ",
"                                      $ # m.bXc.x.5.|.jXgXdX|.7.7.5.|.dXgXjX|.LXZ.rXcXb.C *                                         ",
"                                        9 U L - x.7.7.y. Xk.7.7.7.y.y.k. Xy.y.5.Z.c.A. .0 :                                         ",
"                                          : A - x.7.7.y.7.^.r.7.7.7.r.^.5.5.5.k.Z.c.T.T :                                           ",
"                                            g - x.7.5.5.5.V.E.7.y.r.6XV.5.5.5.k.Z.c.i b :                                           ",
"                                            g - x.7.7.5.5.`.E.E.E.E.6X`.5.5.5.k.Z.c.b O q                                           ",
"                                            6 - .X7.7.7.U._.V.!.!.!.V._.U.y.5.5.Y.L r                                               ",
"                                            * m OX7.y.r.oXPXm.m.m.m.m.FXoXU.5.7.] 9 t                                               ",
"                                            * u A.(.v.r.oXQ.NXtXtXtXNXHXoXU.r.(.} {                                                 ",
"                                            . v 2 S Y.v._.(.Q.Q.Q.Q.Q.-X_.r.(.S P *                                                 ",
"                                            w o o 0 S BXU.^.`.$XZ.$X`.7. XY.o.c . X                                                 ",
"                                                  Q k n G._. X$X6XV.k.!.D.#X# j                                                     ",
"                                                    w %., qX,X,X,X,X,XuX1 T.@.                                                      ",
"                                                & #.$.! yXmX~.~.~.~.~.[.=X].x r 6                                                   ",
"                                            N ( X.C.CXK.9XpXG.!.!.-XZXpXC.R.R.C.W r *                                               ",
"                                        q g R 7XDX4.s.K.S.}.aXsXsXsXJ.}.eXeXp.4.j.7X[ M t                                           ",
"                                      w d K 4Xp.4.R.F 1XR.4.h.N.N.N.K.i.UXKXkXi.4.4.q.'.y X                                         ",
"                                      A K I.4.4.4.I.9.8Xf.4.N.W.W.n.iXS.IXlX2Xg.i.i.4.S._ d                                         ",
"                                    f | wX4.4.4.4.4.4.4.4.4.d.>X>X+XN.xX2XlX2X4.4.4.4.4.R.x l                                       ",
"                                  X y 9X4.4.4.f.CXh.p.4.4.4.p.p.p.B.N.4.xXkXf.I.j.f.4.4.4.9.Y :                                     ",
"                                  = z q.4.4.f.N.+X1Xs.4.4.4.4.4.{.P.q.4.4.4.4.C.L.<Xf.4.i.p.B 6                                     ",
"                                  = z j.4.4.8X+XT.W.s.4.4.4.4.p.fX<X4.4.4.4.4.XXT.L.4X4.i.p.B 6                                     ",
"                                  = z j.4.S./ 2 Z ..I.4.4.4.4.N.fXj.4.4.4.4.4.XXt.T F K.4.p.B 6                                     ",
"                                  = z h.4.I.0Xd Q D I.4.4.4.4.<XC.4.4.4.4.4.4.J.+ l n j.4.p.B.g                                     ",
"                                  = x f.4.s.W.5   D I.4.4.4.4.s.I.4.4.4.4.4.4.J.+ & ) h.4.4.B.4                                     ",
"                                  = ! iX9.{.yX5   < S.4.4.4.4.4.4.4.4.4.4.g.4.J.+ & n &X9.iX].4                                     ",
"                                  o P *X*X#X1 5   < f.4.4.4.4.4.4.4.4.4.4.4.4.J.+ & > #X*X*X/.4                                     ",
"                                  = E %X-X@X).5   D d.9.9.9.9.9.9.9.9.9.9.9.9.B.+ * n ;X-X%XnX4                                     ",
"                                  = E V.x.G./.5   c W.F.F.n.n.F.n.n.n.n.F.F.F.yX+ * ; G.(.`.OX4                                     ",
"                                  N U b.G.=XT.5   < C.d.9.q.q.q.q.q.q.q.q.q.h.l.+ & <.=XG.bXrXk                                     ",
"                                  q I @ 2 2 2 k   < '.XXXX4.4.4.4.4.4.4.4.4.4.3X+ . H 1 1 1 t.k                                     ",
"                                    w o o o o 7   < &X9.d.4.4.4XP.8X4.4.4.4.4.3X+ o t p v Z Z 6                                     ",
"                                                  < &XR.s.4.4.9XT.'.4.4.4.4.4.3X+ o   7 j j j w                                     ",
"                                                  < &Xi.4.4.j.F r W j.4.4.4.4.3X+ .                                                 ",
"                                                  y ].l.l.l.>X> t 3 x l.l.l.l.n.+ .                                                 ",
"                                                $ ~ VX[.[.MXt.H   w > uX[.[.VXc.+ .                                                 ",
"                                                $ *.E.u.:XM.=Xp   X ; @X:X:XV.~.% .                                                 ",
"                                                $ =.BXM.M.e.=Xp   X > D.M.M.;XrX% .                                                 ",
"                                                  y AXB.B.>X1 p   X > ].B.B.AX0X+ .                                                 ",
"                                                  G S.p.g.CXL.#   X ; d.4.p.g.P.% .                                                 ",
"                                                  G wXK.q.wXL.#   X ; {.q.K.j.P.% .                                                 ",
"                                                  G J.d.J.}.L.#   X ; 7XaXd.C.l.% .                                                 ",
"                                                  J S.p.p.j.L.#   X ; }.g.p.p.P.% .                                                 ",
"                                                  J f.4.4.j.L.#   X ; }.4.4.4.P.% .                                                 ",
"                                                $ J d.'.d.q.+X#   X ; {.{.'.d.P.% &                                                 ",
"                                                $ Y R ( y >.=X#   X ; / c ( ) F.% &                                                 ",
"                                                w 0 l o -.:.t.#   X b 3.1.& ,.v u &                                                 ",
"                                                w A f > ^ ^ t.#   X b ~ 2.v ;.> u &                                                 ",
"                                                $ H m i , , t.p   X b i m i V i 2 .                                                 "
};
