/* XPM */
static char *b3b4b36b827c43ddb712650f92f37bb1t3XnpdttrFgFGtXM[] = {
/* columns rows colors chars-per-pixel */
"64 64 256 2 ",
"   c #191902",
".  c #0A1206",
"X  c #261A05",
"o  c #18270E",
"O  c #232300",
"+  c #2B2B00",
"@  c #2A2701",
"#  c #342D01",
"$  c #2B3304",
"%  c #3C3B02",
"&  c #373503",
"*  c #313517",
"=  c #04182F",
"-  c #112E33",
";  c #2A2B28",
":  c #2B3229",
">  c #35352A",
",  c #3A3A34",
"<  c #3D3D3B",
"1  c #363634",
"2  c #2F2E2E",
"3  c #521900",
"4  c #761700",
"5  c #433B04",
"6  c #443614",
"7  c #6E3107",
"8  c #423E36",
"9  c #7E3620",
"0  c #3D4101",
"q  c #3F441B",
"w  c #3D423A",
"e  c #374225",
"r  c #1E433C",
"t  c #444302",
"y  c #494805",
"u  c #534A03",
"i  c #565505",
"p  c #4A4916",
"a  c #535318",
"s  c #635B03",
"d  c #6B570E",
"f  c #5D610A",
"g  c #676605",
"h  c #736B07",
"j  c #797607",
"k  c #676716",
"l  c #756C15",
"z  c #787617",
"x  c #6B7411",
"c  c #494825",
"v  c #42433E",
"b  c #47493B",
"n  c #57573B",
"m  c #50562A",
"M  c #63582E",
"N  c #5C602A",
"B  c #6A6926",
"V  c #797729",
"C  c #727333",
"Z  c #031944",
"A  c #0E3251",
"S  c #28364C",
"D  c #0B3668",
"F  c #133A68",
"G  c #083A77",
"H  c #143873",
"J  c #34454D",
"K  c #264765",
"L  c #444542",
"P  c #464944",
"I  c #4A4A45",
"U  c #4C4D4B",
"Y  c #494545",
"T  c #514D48",
"R  c #4D524B",
"E  c #52534D",
"W  c #56564A",
"Q  c #4D4C52",
"!  c #545552",
"~  c #565953",
"^  c #5A5B55",
"/  c #5C5D5A",
"(  c #575758",
")  c #4D5553",
"_  c #625D58",
"`  c #5D615B",
"'  c #5E6055",
"]  c #536650",
"[  c #666749",
"{  c #62635D",
"}  c #676A59",
"|  c #787756",
" . c #73764D",
".. c #565A64",
"X. c #5C6365",
"o. c #646562",
"O. c #696A65",
"+. c #6C6D6A",
"@. c #666866",
"#. c #6E716B",
"$. c #6E7566",
"%. c #72736D",
"&. c #777768",
"*. c #757572",
"=. c #7A7B75",
"-. c #7C7D79",
";. c #767976",
":. c #6F706E",
">. c #615E61",
",. c #B63207",
"<. c #902309",
"1. c #8D4F04",
"2. c #AC5704",
"3. c #8A760C",
"4. c #AB6E0D",
"5. c #88782C",
"6. c #A7662A",
"7. c #C7792B",
"8. c #C75614",
"9. c #8C7C45",
"0. c #817C77",
"q. c #AA7C62",
"w. c #7D8326",
"e. c #7C827A",
"r. c #7C8C6E",
"t. c #73834F",
"y. c #87860A",
"u. c #898617",
"i. c #979719",
"p. c #948E12",
"a. c #A99416",
"s. c #B3A517",
"d. c #888526",
"f. c #999726",
"g. c #9C9936",
"h. c #918A2E",
"j. c #A49A29",
"k. c #AF962D",
"l. c #A9A729",
"z. c #A8A538",
"x. c #B8B736",
"c. c #B5AF2E",
"v. c #9BA52B",
"b. c #C58C19",
"n. c #CE932E",
"m. c #C4B937",
"M. c #C6B52E",
"N. c #E9A93B",
"B. c #BFC235",
"V. c #C8C43A",
"C. c #D3CD34",
"Z. c #E1D438",
"A. c #E5E03E",
"S. c #8F8C4F",
"D. c #A5A444",
"F. c #BCBB46",
"G. c #B2B052",
"H. c #87866B",
"J. c #82837D",
"K. c #87877A",
"L. c #959270",
"P. c #AA9675",
"I. c #9DA174",
"U. c #ADAE70",
"Y. c #9AA051",
"T. c #CAB845",
"R. c #EEB452",
"E. c #C9C847",
"W. c #D4CB49",
"Q. c #D7D549",
"!. c #D4CB56",
"~. c #D8D856",
"^. c #CBCA51",
"/. c #E4DA48",
"(. c #E4DB56",
"). c #E6C953",
"_. c #DBE150",
"`. c #E5E457",
"'. c #E9E54A",
"]. c #D5D469",
"[. c #E5DD68",
"{. c #E8E668",
"}. c #F3E771",
"|. c #DEE170",
" X c #BDC35F",
".X c #053C85",
"XX c #727B88",
"oX c #5D7985",
"OX c #837F84",
"+X c #7D8587",
"@X c #858582",
"#X c #8A8B85",
"$X c #8C8D8A",
"%X c #868886",
"&X c #8E9089",
"*X c #92938D",
"=X c #98988A",
"-X c #949493",
";X c #9A9A95",
":X c #9C9D9A",
">X c #979996",
",X c #908F92",
"<X c #A39A95",
"1X c #9CA39A",
"2X c #9DA28B",
"3X c #A2A39E",
"4X c #A7A69B",
"5X c #AEAE92",
"6X c #A4A5A2",
"7X c #A6A9A4",
"8X c #ABABA5",
"9X c #ACACAB",
"0X c #A6A6A7",
"qX c #B2B2AD",
"wX c #B6B8A7",
"eX c #B5B5B3",
"rX c #BABBB5",
"tX c #BCBCBA",
"yX c #B7B7B5",
"uX c #ADAFAD",
"iX c #9D9EA2",
"pX c #C2BFB5",
"aX c #BEC1B8",
"sX c #BBC0A0",
"dX c #BDC687",
"fX c #CCD088",
"gX c #C2C3BC",
"hX c #C8C7B9",
"jX c #D2D2B3",
"kX c #E9E2AA",
"lX c #C4C5C2",
"zX c #CACBC5",
"xX c #CCCCCA",
"cX c #C7C8C6",
"vX c #CCD1C9",
"bX c #D2D3CD",
"nX c #D7D7C9",
"mX c #D4D5D3",
"MX c #DADBD5",
"NX c #DCDDDA",
"BX c #D7D7D6",
"VX c #D0CDCE",
"CX c #E4DDD6",
"ZX c #DDE1DA",
"AX c #E2E3DD",
"SX c #E7E8D8",
"DX c #F1EFD2",
"FX c #DDDCE4",
"GX c #E4E5E1",
"HX c #E8EAE6",
"JX c #F9FAEA",
"KX c #FEFDFC",
"LX c #F8F9F5",
"PX c #ECF2E3",
"IX c #DDE1E2",
"UX c #BDC1C4",
/* pixels */
"J.eX9X9X^ *XqX9XqX3Xo.3X9X8XyX+.%XeX4XwX&.:XqX8XwXW &XeXuXrXt.$ | wX7XqXqX;X} 8X8X9X<X_ uX9XuX:X{ 9XqX8X;Xo.9X8X8X6X^ *XqX9XqX*.",
"6XMXbXzXO.rXbXMXbXzX;.xXMXmXNX@X8XBXbXnX*XrXNXbXnX&.1XbXNXhXC Y.H.sXSXbXmXlX=.vXmXbXpX&.mXBXMXeX*.MXxXmXeX+.MXbXbXxX^ qXAXxXMX$X",
"P O.+.{ > E O.O.@.^ , ^ o.@.o., P +.o.` L E o.o.` : R } [ a j |.s p  .} :.o.; ` X.@.W > o.@.{ W 1 { O.o.E 2 { O.{ { 2 E / O.O.U ",
";.*.^ ;X*X>X#XU @X;X;X;X{ ! ;X-X:XO.@.iX>X>Xe.R 4XK.p p V x c.W.j.5.B a c 0.=X1X) #.=X*X1X{ J.;X-X$X! *.;X*X*XP %.:X*X-XJ.*X;XO.",
"8X;XJ.ZXBXMXlXO.bXMXBXGX@X%XAXmXAX*X*XAXNXFX9X&.jXS.5.^.}.}.`./.{.{.}.~.d.S.hXHXe.1XAXMXZX#XtXGXmXNX;.9XMXbXmX/ 7XGXMXAXlXlXAX&X",
"` E v #.-.*.#.2 +.+.-.-., L %.*.-.P T $.+.-.[ @ # g.}.).M.a.y.E.f.f.x.Q.{.g.+ * * } *.#.-.P ( ;.*.*.< ^ ;.;.%.2 / *.-.-.{ O.;.! ",
"~ ;.+.%.P { %.%.%.+.U +.%.O.;.E @.@.+.H.[ % s 3.u.).F.l % $ B fXa # 0 i l.(.y.j i & } ! +.*.+.+.I *.O.%.O.L *.%.+.O.L O.#.*.*.E ",
"7XGXAXMX%.aXHXAXAXbXJ.MXAXAXHX#X0XHXSXjXB d.].(.(.).3.9.P.H.N fXH.M S.S.3.W.(.(.!.g.M } SXCXAXcX-.AXNXAXgX-.ZXNXNXMXo.yXAXNXAX&X",
"o.;X*X$Xv ;.-X*X$X@XU #X*X*X>X! @.>X&.% u.(.^.u.x.x.1.9 <.9 d kX5.3 9 7 7 c.W.i.E.|.d.& [ =X#X-.U #X*X*X;.P $X-X&X#X< *.*X@X$Xo.",
"E ! v / ! E / L { ^ ! { L P o.E _ T c V Q.C.s t E.k.7 4 <.4 6.kX6.4 <.4 7 k.W.h u F.[.u.t n E ( E o.v ~ ` U { < E { E ~ ^ o.o.v ",
"uX;X$XGXMXGXcX{ zXZXNXAXJ.J.NXMXSXL.# z.~.y.u 5 x.!.7.,.,.2.R.}.R.8.,.,.7.).).d 3 5.!.z.u n gXZXMXNX%.qXNXmXBX{ 7XNXAXZXmXmXZX-X",
"J.%.o.3X6X:X*XR :X6X3X6X^ / 3X3X4X .h W.m.h 3 6.T.).R.2.,.8.N.M.N.2.,.8.n.).R.4.3 7 j.{.V & #X;X3X:X! -.3X3X;XL e.3X8X6X:X3X3X+.",
"L U < ! L U ! < U ! v ! Y < ! v T 6 j./.s.1.<.8.n.b.2.2.7.1.2.2.2.1.7.4.4.b.N.7.4 1.p.[.h.& c E L U < I ! < ! < L ! L U U E ! v ",
"3XmXbXxXo.qXBXbXxXlX+.cXBXxXMX0.9XU.z.(.m.4.<.,.1.b.4.4.b.b.b.b.b.b.a.a.s.k.2.2.<.1.m.|.5. .CXlX*.mXxXBXeX+.mXmXxXcXo.8XMXmXmX$X",
"%XeXqX9X/ ;XyXeXyX6Xo.9X8XeXyX+.-XL.G.].].k.2.n.k.p.h.k.2.7.4.7 7.a.4.n.g.f.a.b.4.4.!.|.V M xX0X>.yXeXyX;Xo.yXqXeX9X! $XeXeXeX-.",
"w ! P U 2 P ! L U U , L ! P U 1 I > p i t h n.n.3.u % j d 1.1.7 1.1.1.3.5 i 3.n.n.6.5 t & $ Y Q 1 E L E P 2 ! U I E 2 I U ! E < ",
"1X#X-.xXhXgXrXW yXzXaXzX*.;.lXlXVX;.H.jXjXP.7 1.d i g y.s.s.s.s.s.s.s.y.g s s 1.7 q.jXwXjXK.<XVXlXgX{ 3XcXpXgX! -XxXlXcX6X9XxX%X",
"1X-X;.lXhXhXwX{ gXzXcXbX+.*.xXgXxX@XK.nXjXH.X 1.k.m.E.~.(.(.`.`.`.`./.W.Q.x.a.d 3 P.jXvXvXe.6XzXgXvX$.1XzXtXtX{ -XbXgXbXqX9XxX%X",
"P Y 1 o.{ { ^ ; ! { @.@.1 1 { _ O.; 8 | y i p.c./.'.`.x.j.d.d.z d.d.f.!.`./.'.M.p.t a | O., Q o.@.( 2 b o.o.{ ; L @.O.@.L E o.U ",
"+.-X-X-XU ;.>X*X*X-XQ @X:X$X=X_ $.wX .@ 3.x._.`.E.a.j s # 9.U.I.I.I.i 0 g j.C.'.~.f.k @ | 4X$X%X( -X&X>X;.P -X$X*X#XP %.*X*X>X>.",
":XNXNXxX+.pXBXMXMXcX-.mXNXMXSXK.=X| V j.`.`.c.z y S.L.L.H.CXJXJXJXJX2X&.L.C 0 f.~.~.W.u.d L.PXvX-.IXBXBXaX-.MXMXBXVXO.8XAXbXMX-X",
"! *.+.:.2 / *.*.O.O.< o.*.*.&.b + 0 f.`.V.j j D.S.nXKXKXKXLXKXLXLXKXKXKXKXjXS.d.g l.(.[.l # W #.< :.;.%.` , @.;.:.+.2 W #.#.*.U ",
"$.{ ! $XJ.-.;.v -.%X-.$X! ^ K.c t f.(.E.z & s u.V dXPXLXLXKXKXKXKXLXKXKXSXI.d.y.O g f.W.Q.j + W %X$XU *.%X-.+XJ o.$X-.K.%.*.$X/ ",
"wX3X$XHXMXNXzX{ VXNXBXPXJ.;XL.# p.(.E.g l h.j.c.l.x 5XSXJXJXJXJXJXJXJXSXL.z c.c.u.D.z j Q.V.l p wXGX;.eXZXMXmXo.9XIXMXSXrXzXNX-X",
"$.' ! $X$X@X%.< XX@XK.#XI W a k ~.W.d.0 g c.`.'.'.V.g U.jXjXjXjXjXjXjXB z ~.'./.Q.y.z i u.~.x.s & =XI +.#Xe.%X< o.%X#X#X%.%.%X^ ",
"P ~ P ^ L I { I ( ! v W _ * y F.~.p.V V l.{.E.j p.Q.F.3.k k k k B k l g.Q.C.p.y.V.~.g.s g f.`.l.5 * T ! ~ v ! Q ( ! , W E E ^ P ",
"3XHXMXmX*.yXMXNXNXxX-.MXpXB u.`.z.y g z.{.G.[ . . g.`.C.M.M.m.m.x.B.M.Z.'.y.& V h T.(.j 5.y c.~.l a PXGXgX%.mXBXBXxX{ 9XAXNXMX$X",
"-.9X8X;X! ,X6X6X0X:X^ =X6 t W.V.z s 3.{. Xy . o p 5.~.A.Z.Z.Z.C.C.Z.'.A.C.j k kXS.s V.W.u @ j ~.z.i L.4X*X! 7X6X3X:XI J.6X6X3X%.",
"Q U v W L Y ! I I ! U 8 O d.`.i.% i M.Q.C o $ t F.`.^.c.s.p.j j y.c.f.y.V.Q.h.% jX .p.~.z.s 5 g.].g O I ! J U L U ! , T ! ( / , ",
"9X-Xe.MXmXBXtX/ zXzXGX2X% G.~.y.x x `.l.$ * k z._.~.w.O k g.y.i.Q.F.$ + p.!.S.N KXjXg c.~.s @ V ~.j p nXBXbXmX~ :XNXnXmXcXxXNX&X",
":X%X;.gXyXtXyXE uXgXrX9.i ].D.5 g z.~.j . # f.~.~.w.- - . y i.Q.^.5 I.DX .a n wXJXSX% z ~.j k k x.x.& 2XtXyXeX! *XgXhXhXeXeXaXe.",
"Q w ; / { ^ T ; E / b . j ~.d.  g |.D.i   & m.Q.h.* A H A o G.F.u I.KXKXvX=XgXKXKXJX* % E.x.t O i.~.k   E X.! ; L / { { U Q / v ",
"+.#X#XK.b %.J.,X%X#X> t x.~.k O y.{.w.O + k `.x.o A G G F K r. .. +XHXLXKXKXKXKXKXLX=X& z.~.i O y.{.h.& &.U #X@X$X-.v %.#X#X%X/ ",
":XAXbXvX} rXAXBXBXBXn i W.M.k S.c.Q.V S.N D.~.x = H G G G D A - A = J BXLXKXLXKXKXKXLX% j ~.V S.h ^.D.y wX;.AXMXMXxX{ 8XNXmXmXJ.",
">.@X-.-., o.@XOX-.e.* i V.m.B V c.C.V DXh.f.~.k = H G .XG G D D D D = ..GXKXKXKXKXKXHX& y.Q.5.C g !.D.+ $.w =.J.-.;., o.-.;.-.~ ",
"( Q P @.( ^ _ L ( } c u V.V.N u c.C.C kX5.f.~.x . D G G D Z - A A F A = X.IXLXKXLXKXLXp y.~.V u h !.D.$ [ / { , E o.~ / ` O.o.Y ",
"9X6X@XGXNXHXxX/ zXSXI.y W.x.C S.l.E. .jXV f.W.z ;XA H H = o t.Y.t.- F D Z J cXLXKXKXJX% 3.~.V Y.g !.g.% jXBXbX` 8XGXAXGXMXmXAX-X",
"J.*.` 8X6X6X-XU &X5X| y V.x.C  .l.E.C kXV h.Q.i.5X0XZ S = m !.Q.|. .S H D = J FXLXKXPX0 y.~.V S.g !.g.& 2X6X:XP -.4X6X7X1X:X6X+.",
"v , 2 P v Y L 2 v b * y c.E.N 5 a.Q.V N & y m.E.i 5XXXS . m [.s.l.fXe.A G G Z S FXKXCXy c.Q.p & j !.g.+ , v v ; , P < P L v Y < ",
"#XbXzXgX{ 9XVXVXcXbX&.  i.~.5.V j `.z.i I.  i.W.g.y jX1X. t W.M.j.U.$.S G .XH Z S NXJXh.W.l.p + u.`.d.+ wXzXlXzXhXzXO.3XxXlXcX@X",
"*XbXhXzX{ yXBXBXbXAXe.. h ~.Y.i u F.E.h P.M i c.E.i.V U.m . E.W.V c R K D G G D Z ) I.D.~.j t % i.`.k + hXxXbXxXxXzX+.:XzXlXlX-.",
"P / ^ ^ ; E _ >.{ { L O s ].h.+ @ 3.(.i.#  .% d.x.c.p.g i g (.c.0 . . : S A A D D = 0 G.T.g   y V.V.t O W ` / ^ ~ _ 1 U ( ! ! L ",
"$XyXeX9X` :XyXtXyX6X:.H.t F.F.g B t E.W.d [ 5X5 3.V.W.a.p.y.Z.M.y O O p Y. .r A A . k [.h.u 9.l Q.p.% wX4X/ qXyXeXuX^ *XyXeXeX-.",
"-XmXcXcX/ yXVXxXxXgX%X=XO d.~.j p C f.[.G.B nXwXa 3.m.V.V.C.Z.Q.^.G.U.U.!.fX] Z A J S.].V M d h.~.h 6 hXrX*.xXcXxXlX{ 7XbXlXbX*X",
"U ( ( ! ; U ^ / ^ E J w   k [.z.y p t G.].B [ &XO % k d.l.V.C.V.E.].].fXU. .K D F J dXG.% # g ^.F.i O ^ R : ! / ( ! ; U ^ { _ < ",
"$X*.@.8XuX7X;XI ;X7XuX8X[ @ z.].k % fXS.f C 2XE qX5X2X+   j B.B.p.f y m e - F G D K b O H.y i._.x p n K.8X3X7XU OXeX6X9X1X3X9X-.",
"6X>XJ.NXVXVXhX{ hXxXcXZXK.X j ~.F.g kXjX5XjXbX0.VXmXnXH.c y F.x.% . o = A F G G .XG Z . m d.E.B.i c K.8XnXvXzX>.:XNXcXmXgXaXBX$X",
"` , 8 O.+.@.{ ; ^ @.:.+., . 5 f.`.j.a 5XhXqX-.1 o.o.%._ , * G.d.L.uX= A D G G .X.X.XA . % ^.~.w.5 > , R } } @.2 U @.*.+.W W o.Q ",
"o.#X@X@XY *.%XJ.J.-.! e.J.&X[ t E.Q.f.f [ #X:X$X*X~ =.-XOXX Y.y 8XKX>X= A G G .X.XH = + l./.z.u 6 =X#XJ.-.R J.@X%X%XL *.#X@X#X/ ",
"8XGXMXMX%.zXGXNXAXbX;.BXAXAXrXc j W.Q.g.S.DXJXKXKX;XMXKXKX6X .| BXLXKXXX= F G G F = q h.Q.V.g p } AXMXAXlX;.MXNXMXbXO.yXGXMXAX&X",
"{ J.J.-., +.@X#X-.;.L ;.J.J.#Xn O z W.Q.f.V nXmXCX0.8XcXxXHX&.wXAXVXFX+XS S oXoX: $ v.Q.Q.u.% e I e.#X-.O.< *.#XJ.*., +.e.J.@X~ ",
"^ ^ U #.O.@.@.v O.+.O.+.U P %.} [ N j E.~.z.5.6 c H.K.-.^ J.O.;.;.E %X-X=.$.; $ V F._.Q.w.0 n { +.#.v / *.{ #., ^ +.O.+.{ O.+.! ",
"8X6XJ.NXNXMXzXo.xXNXMXAXJ.@XGXMXSXL.O B ^.{.T.3.j V  .} $.KXKXKXJXK.hX&.| C k f.W.`.~.g p } hXAXMXAX-.qXAXMXNXo.7XGXAXMXbXbXNX;X",
"#.{ E $X&X$Xe., -.#X#X-XP E *X@X*XW W # u z.(.`.x.u.i O a L.L.I.S.p p + i d.W.(.Q.j.i 5 K./ +.$X$X#XP @.@X#XJ., { *X$X#XJ.J.$X/ ",
"E ^ / ` L ! { / / ^ P / E ! @.P E } ^ [ m N V F.~.`.Q.x.i.p.p.p.y.i.l.E.~.`.~.z.l u p c O./ ^ { < { ! { o.v o.^ / ` L ^ o.{ @.E ",
":XHXMXBX+.tXAXMXMXbX*.mXGXNXGX%X6XGXZXZXSX5X+ 0 h f.E.W.`.`.`.~.`.Q._.Q.B.i.j u # H.MX*.NXIXCXzX;.ZXNXMXlX*.NXNXNXbXO.qXGXMXAX*X",
"%.6X:X;XP @X3X;X;X-XU -X6X:X6X( ;.:X>X:X1X2Xr.* [ & i z d.5.u.u.d.d.d.l g t # | 2X3X#XR >X>X<X@XT :X:X:X@XE ;X3X;X-XP -.:X:X1XO.",
"L I v R P P P P U P L ! v L ! < L ( ! E w W I v ^ X * p 5 y & & 5 % p + & * , ~ L U R w ( < T ! v E v P U v U v L E L U U E ! P ",
"3X>XJ.bXbXmXrX^ gXbXxXNX-.-.BXBXBXmXxXhX6XcXzXnXmXO.8XMXnXCX&.4XCXnXSXH.=XMXBXBX;.1XZXvXZX%XqXnXbXmX#.9XNXBXbX{ 6XAXmXbXxXxXmX*X",
"#X-.{ 8X9X6X3XI 6X8X9XeX/ o.uX6X9X8X4X3X0.6X9X6X8XE -.9XuXeX( XXuX6XqX( *.eX0XuX` e.9X7XuX+.#X8X6X9X/ #X8X6X7XP J.9X8XeXrX3XqX*.",
"< < 1 U v P P 2 < I L U 1 1 I I U < Y I > v Y v R ; w R < Q 1 L P w E 2 < U w R : , E < P 1 , P v L 1 v U v E 1 < Y I :X%X-XI < ",
"-XxXcXlX{ 8XzXzXcXyX#.yXcXcXcXgXzX;.:XxXxXbX:Xo.zXhXbX3X/ xXcXcXqX~ cXvXcXgXO.gXbXhXeX@.lXzXzXyXO.lXxXmX9XO.lXxXlXtX{ yXBXBXxX@X",
"%XlXeX9Xo.:XtXyXtX3X{ eXyXtXyXyXpXO.-XlXyXtX>X@.tXtXyX1X^ tXyXaX8X{ qXaXtXuX*.eXeXhX9X{ yXtXeX6XO.tXyXyX3X+.tXyXyX9X! -XyXyXyX-.",
"I ! ! ^ > U ~ ~ ! ^ 1 R / ! ^ ~ ~ , L ( ( ( P 2 ( ( / L 2 ~ ! ~ T 2 / E ` ~ 2 / ^ ! E 1 / ) ( U ; ^ ! ( E 1 ! ( ! ^ 1 Y ^ E ( L "
};
